<svg width="328" height="66" viewBox="0 0 328 66" fill="none" xmlns="http://www.w3.org/2000/svg">
<rect x="24" y="32" width="280" height="12" fill="#333333" fill-opacity="0.74"/>
<rect x="24" y="32" width="56" height="12" fill="#67B4A5"/>
<rect x="80" y="32" width="56" height="12" fill="#B5D9D2"/>
<rect x="136" y="32" width="56" height="12" fill="#EEE7B0"/>
<rect x="192" y="32" width="56" height="12" fill="#EDCAA6"/>
<rect x="248" y="32" width="56" height="12" fill="#E86161"/>
<path d="M7.368 52.636V61H6.276V57.208H2.016V61H0.924V52.636H2.016V56.308H6.276V52.636H7.368ZM10.6846 52.636V61H9.59259V52.636H10.6846ZM19.2417 55.06C19.0097 54.572 18.6737 54.196 18.2337 53.932C17.7937 53.66 17.2817 53.524 16.6977 53.524C16.1137 53.524 15.5857 53.66 15.1137 53.932C14.6497 54.196 14.2817 54.58 14.0097 55.084C13.7457 55.58 13.6137 56.156 13.6137 56.812C13.6137 57.468 13.7457 58.044 14.0097 58.54C14.2817 59.036 14.6497 59.42 15.1137 59.692C15.5857 59.956 16.1137 60.088 16.6977 60.088C17.5137 60.088 18.1857 59.844 18.7137 59.356C19.2417 58.868 19.5497 58.208 19.6377 57.376H16.3017V56.488H20.8017V57.328C20.7377 58.016 20.5217 58.648 20.1537 59.224C19.7857 59.792 19.3017 60.244 18.7017 60.58C18.1017 60.908 17.4337 61.072 16.6977 61.072C15.9217 61.072 15.2137 60.892 14.5737 60.532C13.9337 60.164 13.4257 59.656 13.0497 59.008C12.6817 58.36 12.4977 57.628 12.4977 56.812C12.4977 55.996 12.6817 55.264 13.0497 54.616C13.4257 53.96 13.9337 53.452 14.5737 53.092C15.2137 52.724 15.9217 52.54 16.6977 52.54C17.5857 52.54 18.3697 52.76 19.0497 53.2C19.7377 53.64 20.2377 54.26 20.5497 55.06H19.2417ZM29.0496 52.636V61H27.9576V57.208H23.6976V61H22.6056V52.636H23.6976V56.308H27.9576V52.636H29.0496ZM32.3662 53.524V56.32H35.4142V57.22H32.3662V60.1H35.7742V61H31.2742V52.624H35.7742V53.524H32.3662ZM40.4385 61.084C39.8865 61.084 39.3905 60.988 38.9505 60.796C38.5185 60.596 38.1785 60.324 37.9305 59.98C37.6825 59.628 37.5545 59.224 37.5465 58.768H38.7105C38.7505 59.16 38.9105 59.492 39.1905 59.764C39.4785 60.028 39.8945 60.16 40.4385 60.16C40.9585 60.16 41.3665 60.032 41.6625 59.776C41.9665 59.512 42.1185 59.176 42.1185 58.768C42.1185 58.448 42.0305 58.188 41.8545 57.988C41.6785 57.788 41.4585 57.636 41.1945 57.532C40.9305 57.428 40.5745 57.316 40.1265 57.196C39.5745 57.052 39.1305 56.908 38.7945 56.764C38.4665 56.62 38.1825 56.396 37.9425 56.092C37.7105 55.78 37.5945 55.364 37.5945 54.844C37.5945 54.388 37.7105 53.984 37.9425 53.632C38.1745 53.28 38.4985 53.008 38.9145 52.816C39.3385 52.624 39.8225 52.528 40.3665 52.528C41.1505 52.528 41.7905 52.724 42.2865 53.116C42.7905 53.508 43.0745 54.028 43.1385 54.676H41.9385C41.8985 54.356 41.7305 54.076 41.4345 53.836C41.1385 53.588 40.7465 53.464 40.2585 53.464C39.8025 53.464 39.4305 53.584 39.1425 53.824C38.8545 54.056 38.7105 54.384 38.7105 54.808C38.7105 55.112 38.7945 55.36 38.9625 55.552C39.1385 55.744 39.3505 55.892 39.5985 55.996C39.8545 56.092 40.2105 56.204 40.6665 56.332C41.2185 56.484 41.6625 56.636 41.9985 56.788C42.3345 56.932 42.6225 57.16 42.8625 57.472C43.1025 57.776 43.2225 58.192 43.2225 58.72C43.2225 59.128 43.1145 59.512 42.8985 59.872C42.6825 60.232 42.3625 60.524 41.9385 60.748C41.5145 60.972 41.0145 61.084 40.4385 61.084ZM50.3375 52.636V53.524H48.0575V61H46.9655V53.524H44.6735V52.636H50.3375Z" fill="black"/>
<path d="M282.016 60.112H284.944V61H280.924V52.636H282.016V60.112ZM290.256 61.084C289.48 61.084 288.772 60.904 288.132 60.544C287.492 60.176 286.984 59.668 286.608 59.02C286.24 58.364 286.056 57.628 286.056 56.812C286.056 55.996 286.24 55.264 286.608 54.616C286.984 53.96 287.492 53.452 288.132 53.092C288.772 52.724 289.48 52.54 290.256 52.54C291.04 52.54 291.752 52.724 292.392 53.092C293.032 53.452 293.536 53.956 293.904 54.604C294.272 55.252 294.456 55.988 294.456 56.812C294.456 57.636 294.272 58.372 293.904 59.02C293.536 59.668 293.032 60.176 292.392 60.544C291.752 60.904 291.04 61.084 290.256 61.084ZM290.256 60.136C290.84 60.136 291.364 60 291.828 59.728C292.3 59.456 292.668 59.068 292.932 58.564C293.204 58.06 293.34 57.476 293.34 56.812C293.34 56.14 293.204 55.556 292.932 55.06C292.668 54.556 292.304 54.168 291.84 53.896C291.376 53.624 290.848 53.488 290.256 53.488C289.664 53.488 289.136 53.624 288.672 53.896C288.208 54.168 287.84 54.556 287.568 55.06C287.304 55.556 287.172 56.14 287.172 56.812C287.172 57.476 287.304 58.06 287.568 58.564C287.84 59.068 288.208 59.456 288.672 59.728C289.144 60 289.672 60.136 290.256 60.136ZM306.769 52.636L304.345 61H303.121L301.177 54.268L299.161 61L297.949 61.012L295.609 52.636H296.773L298.597 59.728L300.613 52.636H301.837L303.757 59.704L305.593 52.636H306.769ZM309.416 53.524V56.32H312.464V57.22H309.416V60.1H312.824V61H308.324V52.624H312.824V53.524H309.416ZM317.489 61.084C316.937 61.084 316.441 60.988 316.001 60.796C315.569 60.596 315.229 60.324 314.981 59.98C314.733 59.628 314.605 59.224 314.597 58.768H315.761C315.801 59.16 315.961 59.492 316.241 59.764C316.529 60.028 316.945 60.16 317.489 60.16C318.009 60.16 318.417 60.032 318.713 59.776C319.017 59.512 319.169 59.176 319.169 58.768C319.169 58.448 319.081 58.188 318.905 57.988C318.729 57.788 318.509 57.636 318.245 57.532C317.981 57.428 317.625 57.316 317.177 57.196C316.625 57.052 316.181 56.908 315.845 56.764C315.517 56.62 315.233 56.396 314.993 56.092C314.761 55.78 314.645 55.364 314.645 54.844C314.645 54.388 314.761 53.984 314.993 53.632C315.225 53.28 315.549 53.008 315.965 52.816C316.389 52.624 316.873 52.528 317.417 52.528C318.201 52.528 318.841 52.724 319.337 53.116C319.841 53.508 320.125 54.028 320.189 54.676H318.989C318.949 54.356 318.781 54.076 318.485 53.836C318.189 53.588 317.797 53.464 317.309 53.464C316.853 53.464 316.481 53.584 316.193 53.824C315.905 54.056 315.761 54.384 315.761 54.808C315.761 55.112 315.845 55.36 316.013 55.552C316.189 55.744 316.401 55.892 316.649 55.996C316.905 56.092 317.261 56.204 317.717 56.332C318.269 56.484 318.713 56.636 319.049 56.788C319.385 56.932 319.673 57.16 319.913 57.472C320.153 57.776 320.273 58.192 320.273 58.72C320.273 59.128 320.165 59.512 319.949 59.872C319.733 60.232 319.413 60.524 318.989 60.748C318.565 60.972 318.065 61.084 317.489 61.084ZM327.388 52.636V53.524H325.108V61H324.016V53.524H321.724V52.636H327.388Z" fill="black"/>
<path d="M81.768 18.112C81.032 18.112 80.3707 17.984 79.784 17.728C79.208 17.4613 78.7547 17.0987 78.424 16.64C78.0933 16.1707 77.9227 15.632 77.912 15.024H79.464C79.5173 15.5467 79.7307 15.9893 80.104 16.352C80.488 16.704 81.0427 16.88 81.768 16.88C82.4613 16.88 83.0053 16.7093 83.4 16.368C83.8053 16.016 84.008 15.568 84.008 15.024C84.008 14.5973 83.8907 14.2507 83.656 13.984C83.4213 13.7173 83.128 13.5147 82.776 13.376C82.424 13.2373 81.9493 13.088 81.352 12.928C80.616 12.736 80.024 12.544 79.576 12.352C79.1387 12.16 78.76 11.8613 78.44 11.456C78.1307 11.04 77.976 10.4853 77.976 9.792C77.976 9.184 78.1307 8.64533 78.44 8.176C78.7493 7.70667 79.1813 7.344 79.736 7.088C80.3013 6.832 80.9467 6.704 81.672 6.704C82.7173 6.704 83.5707 6.96533 84.232 7.488C84.904 8.01067 85.2827 8.704 85.368 9.568H83.768C83.7147 9.14133 83.4907 8.768 83.096 8.448C82.7013 8.11733 82.1787 7.952 81.528 7.952C80.92 7.952 80.424 8.112 80.04 8.432C79.656 8.74133 79.464 9.17867 79.464 9.744C79.464 10.1493 79.576 10.48 79.8 10.736C80.0347 10.992 80.3173 11.1893 80.648 11.328C80.9893 11.456 81.464 11.6053 82.072 11.776C82.808 11.9787 83.4 12.1813 83.848 12.384C84.296 12.576 84.68 12.88 85 13.296C85.32 13.7013 85.48 14.256 85.48 14.96C85.48 15.504 85.336 16.016 85.048 16.496C84.76 16.976 84.3333 17.3653 83.768 17.664C83.2027 17.9627 82.536 18.112 81.768 18.112ZM89.6866 6.848V13.904C89.6866 14.896 89.9266 15.632 90.4066 16.112C90.8973 16.592 91.5746 16.832 92.4386 16.832C93.292 16.832 93.9586 16.592 94.4386 16.112C94.9293 15.632 95.1746 14.896 95.1746 13.904V6.848H96.6306V13.888C96.6306 14.816 96.444 15.6 96.0706 16.24C95.6973 16.8693 95.1906 17.3387 94.5506 17.648C93.9213 17.9573 93.212 18.112 92.4226 18.112C91.6333 18.112 90.9186 17.9573 90.2786 17.648C89.6493 17.3387 89.148 16.8693 88.7746 16.24C88.412 15.6 88.2306 14.816 88.2306 13.888V6.848H89.6866ZM103.236 18.112C102.5 18.112 101.838 17.984 101.252 17.728C100.676 17.4613 100.222 17.0987 99.8915 16.64C99.5608 16.1707 99.3902 15.632 99.3795 15.024H100.932C100.985 15.5467 101.198 15.9893 101.572 16.352C101.956 16.704 102.51 16.88 103.236 16.88C103.929 16.88 104.473 16.7093 104.868 16.368C105.273 16.016 105.476 15.568 105.476 15.024C105.476 14.5973 105.358 14.2507 105.124 13.984C104.889 13.7173 104.596 13.5147 104.244 13.376C103.892 13.2373 103.417 13.088 102.82 12.928C102.084 12.736 101.492 12.544 101.044 12.352C100.606 12.16 100.228 11.8613 99.9075 11.456C99.5982 11.04 99.4435 10.4853 99.4435 9.792C99.4435 9.184 99.5982 8.64533 99.9075 8.176C100.217 7.70667 100.649 7.344 101.204 7.088C101.769 6.832 102.414 6.704 103.14 6.704C104.185 6.704 105.038 6.96533 105.7 7.488C106.372 8.01067 106.75 8.704 106.836 9.568H105.236C105.182 9.14133 104.958 8.768 104.564 8.448C104.169 8.11733 103.646 7.952 102.996 7.952C102.388 7.952 101.892 8.112 101.508 8.432C101.124 8.74133 100.932 9.17867 100.932 9.744C100.932 10.1493 101.044 10.48 101.268 10.736C101.502 10.992 101.785 11.1893 102.116 11.328C102.457 11.456 102.932 11.6053 103.54 11.776C104.276 11.9787 104.868 12.1813 105.316 12.384C105.764 12.576 106.148 12.88 106.468 13.296C106.788 13.7013 106.948 14.256 106.948 14.96C106.948 15.504 106.804 16.016 106.516 16.496C106.228 16.976 105.801 17.3653 105.236 17.664C104.67 17.9627 104.004 18.112 103.236 18.112ZM116.594 6.848V8.032H113.554V18H112.098V8.032H109.042V6.848H116.594ZM125.618 15.52H120.754L119.858 18H118.322L122.354 6.912H124.034L128.05 18H126.514L125.618 15.52ZM125.202 14.336L123.186 8.704L121.17 14.336H125.202ZM131.904 6.848V18H130.448V6.848H131.904ZM143.793 18H142.337L136.481 9.12V18H135.025V6.832H136.481L142.337 15.696V6.832H143.793V18ZM153.507 15.52H148.643L147.747 18H146.211L150.243 6.912H151.923L155.939 18H154.403L153.507 15.52ZM153.091 14.336L151.075 8.704L149.059 14.336H153.091ZM163.92 12.256C164.326 12.32 164.694 12.4853 165.024 12.752C165.366 13.0187 165.632 13.3493 165.824 13.744C166.027 14.1387 166.128 14.56 166.128 15.008C166.128 15.5733 165.984 16.0853 165.696 16.544C165.408 16.992 164.987 17.3493 164.432 17.616C163.888 17.872 163.243 18 162.496 18H158.336V6.848H162.336C163.094 6.848 163.739 6.976 164.272 7.232C164.806 7.47733 165.206 7.81333 165.472 8.24C165.739 8.66667 165.872 9.14667 165.872 9.68C165.872 10.3413 165.691 10.8907 165.328 11.328C164.976 11.7547 164.507 12.064 163.92 12.256ZM159.792 11.664H162.24C162.923 11.664 163.451 11.504 163.824 11.184C164.198 10.864 164.384 10.4213 164.384 9.856C164.384 9.29067 164.198 8.848 163.824 8.528C163.451 8.208 162.912 8.048 162.208 8.048H159.792V11.664ZM162.368 16.8C163.094 16.8 163.659 16.6293 164.064 16.288C164.47 15.9467 164.672 15.472 164.672 14.864C164.672 14.2453 164.459 13.76 164.032 13.408C163.606 13.0453 163.035 12.864 162.32 12.864H159.792V16.8H162.368ZM170.245 6.848V18H168.789V6.848H170.245ZM174.822 16.816H178.726V18H173.366V6.848H174.822V16.816ZM182.369 6.848V18H180.913V6.848H182.369ZM192.354 6.848V8.032H189.314V18H187.858V8.032H184.802V6.848H192.354ZM202.594 6.848L198.962 13.792V18H197.506V13.792L193.858 6.848H195.474L198.226 12.496L200.978 6.848H202.594ZM215.548 18L212.892 13.44H211.132V18H209.676V6.848H213.276C214.118 6.848 214.828 6.992 215.404 7.28C215.99 7.568 216.428 7.95733 216.716 8.448C217.004 8.93867 217.148 9.49867 217.148 10.128C217.148 10.896 216.924 11.5733 216.476 12.16C216.038 12.7467 215.377 13.136 214.492 13.328L217.292 18H215.548ZM211.132 12.272H213.276C214.065 12.272 214.657 12.08 215.052 11.696C215.446 11.3013 215.644 10.7787 215.644 10.128C215.644 9.46667 215.446 8.95467 215.052 8.592C214.668 8.22933 214.076 8.048 213.276 8.048H211.132V12.272ZM226.642 15.52H221.778L220.882 18H219.346L223.378 6.912H225.058L229.074 18H227.538L226.642 15.52ZM226.226 14.336L224.21 8.704L222.194 14.336H226.226ZM240.239 18H238.783L232.927 9.12V18H231.471V6.832H232.927L238.783 15.696V6.832H240.239V18ZM249.409 18L244.817 12.912V18H243.361V6.848H244.817V12.016L249.425 6.848H251.265L246.209 12.432L251.313 18H249.409Z" fill="black"/>
</svg>
