<svg width="327" height="34" viewBox="0 0 327 34" fill="none" xmlns="http://www.w3.org/2000/svg">
<rect x="25" width="280" height="12" fill="#333333" fill-opacity="0.74"/>
<rect x="25" width="56" height="12" fill="#67B4A5"/>
<rect x="81" width="56" height="12" fill="#B5D9D2"/>
<rect x="137" width="56" height="12" fill="#EEE7B0"/>
<rect x="193" width="56" height="12" fill="#EDCAA6"/>
<rect x="249" width="56" height="12" fill="#E86161"/>
<path d="M7.368 20.636V29H6.276V25.208H2.016V29H0.924V20.636H2.016V24.308H6.276V20.636H7.368ZM10.6846 20.636V29H9.59259V20.636H10.6846ZM19.2417 23.06C19.0097 22.572 18.6737 22.196 18.2337 21.932C17.7937 21.66 17.2817 21.524 16.6977 21.524C16.1137 21.524 15.5857 21.66 15.1137 21.932C14.6497 22.196 14.2817 22.58 14.0097 23.084C13.7457 23.58 13.6137 24.156 13.6137 24.812C13.6137 25.468 13.7457 26.044 14.0097 26.54C14.2817 27.036 14.6497 27.42 15.1137 27.692C15.5857 27.956 16.1137 28.088 16.6977 28.088C17.5137 28.088 18.1857 27.844 18.7137 27.356C19.2417 26.868 19.5497 26.208 19.6377 25.376H16.3017V24.488H20.8017V25.328C20.7377 26.016 20.5217 26.648 20.1537 27.224C19.7857 27.792 19.3017 28.244 18.7017 28.58C18.1017 28.908 17.4337 29.072 16.6977 29.072C15.9217 29.072 15.2137 28.892 14.5737 28.532C13.9337 28.164 13.4257 27.656 13.0497 27.008C12.6817 26.36 12.4977 25.628 12.4977 24.812C12.4977 23.996 12.6817 23.264 13.0497 22.616C13.4257 21.96 13.9337 21.452 14.5737 21.092C15.2137 20.724 15.9217 20.54 16.6977 20.54C17.5857 20.54 18.3697 20.76 19.0497 21.2C19.7377 21.64 20.2377 22.26 20.5497 23.06H19.2417ZM29.0496 20.636V29H27.9576V25.208H23.6976V29H22.6056V20.636H23.6976V24.308H27.9576V20.636H29.0496ZM32.3662 21.524V24.32H35.4142V25.22H32.3662V28.1H35.7742V29H31.2742V20.624H35.7742V21.524H32.3662ZM40.4385 29.084C39.8865 29.084 39.3905 28.988 38.9505 28.796C38.5185 28.596 38.1785 28.324 37.9305 27.98C37.6825 27.628 37.5545 27.224 37.5465 26.768H38.7105C38.7505 27.16 38.9105 27.492 39.1905 27.764C39.4785 28.028 39.8945 28.16 40.4385 28.16C40.9585 28.16 41.3665 28.032 41.6625 27.776C41.9665 27.512 42.1185 27.176 42.1185 26.768C42.1185 26.448 42.0305 26.188 41.8545 25.988C41.6785 25.788 41.4585 25.636 41.1945 25.532C40.9305 25.428 40.5745 25.316 40.1265 25.196C39.5745 25.052 39.1305 24.908 38.7945 24.764C38.4665 24.62 38.1825 24.396 37.9425 24.092C37.7105 23.78 37.5945 23.364 37.5945 22.844C37.5945 22.388 37.7105 21.984 37.9425 21.632C38.1745 21.28 38.4985 21.008 38.9145 20.816C39.3385 20.624 39.8225 20.528 40.3665 20.528C41.1505 20.528 41.7905 20.724 42.2865 21.116C42.7905 21.508 43.0745 22.028 43.1385 22.676H41.9385C41.8985 22.356 41.7305 22.076 41.4345 21.836C41.1385 21.588 40.7465 21.464 40.2585 21.464C39.8025 21.464 39.4305 21.584 39.1425 21.824C38.8545 22.056 38.7105 22.384 38.7105 22.808C38.7105 23.112 38.7945 23.36 38.9625 23.552C39.1385 23.744 39.3505 23.892 39.5985 23.996C39.8545 24.092 40.2105 24.204 40.6665 24.332C41.2185 24.484 41.6625 24.636 41.9985 24.788C42.3345 24.932 42.6225 25.16 42.8625 25.472C43.1025 25.776 43.2225 26.192 43.2225 26.72C43.2225 27.128 43.1145 27.512 42.8985 27.872C42.6825 28.232 42.3625 28.524 41.9385 28.748C41.5145 28.972 41.0145 29.084 40.4385 29.084ZM50.3375 20.636V21.524H48.0575V29H46.9655V21.524H44.6735V20.636H50.3375Z" fill="black"/>
<path d="M281.016 28.112H283.944V29H279.924V20.636H281.016V28.112ZM289.256 29.084C288.48 29.084 287.772 28.904 287.132 28.544C286.492 28.176 285.984 27.668 285.608 27.02C285.24 26.364 285.056 25.628 285.056 24.812C285.056 23.996 285.24 23.264 285.608 22.616C285.984 21.96 286.492 21.452 287.132 21.092C287.772 20.724 288.48 20.54 289.256 20.54C290.04 20.54 290.752 20.724 291.392 21.092C292.032 21.452 292.536 21.956 292.904 22.604C293.272 23.252 293.456 23.988 293.456 24.812C293.456 25.636 293.272 26.372 292.904 27.02C292.536 27.668 292.032 28.176 291.392 28.544C290.752 28.904 290.04 29.084 289.256 29.084ZM289.256 28.136C289.84 28.136 290.364 28 290.828 27.728C291.3 27.456 291.668 27.068 291.932 26.564C292.204 26.06 292.34 25.476 292.34 24.812C292.34 24.14 292.204 23.556 291.932 23.06C291.668 22.556 291.304 22.168 290.84 21.896C290.376 21.624 289.848 21.488 289.256 21.488C288.664 21.488 288.136 21.624 287.672 21.896C287.208 22.168 286.84 22.556 286.568 23.06C286.304 23.556 286.172 24.14 286.172 24.812C286.172 25.476 286.304 26.06 286.568 26.564C286.84 27.068 287.208 27.456 287.672 27.728C288.144 28 288.672 28.136 289.256 28.136ZM305.769 20.636L303.345 29H302.121L300.177 22.268L298.161 29L296.949 29.012L294.609 20.636H295.773L297.597 27.728L299.613 20.636H300.837L302.757 27.704L304.593 20.636H305.769ZM308.416 21.524V24.32H311.464V25.22H308.416V28.1H311.824V29H307.324V20.624H311.824V21.524H308.416ZM316.489 29.084C315.937 29.084 315.441 28.988 315.001 28.796C314.569 28.596 314.229 28.324 313.981 27.98C313.733 27.628 313.605 27.224 313.597 26.768H314.761C314.801 27.16 314.961 27.492 315.241 27.764C315.529 28.028 315.945 28.16 316.489 28.16C317.009 28.16 317.417 28.032 317.713 27.776C318.017 27.512 318.169 27.176 318.169 26.768C318.169 26.448 318.081 26.188 317.905 25.988C317.729 25.788 317.509 25.636 317.245 25.532C316.981 25.428 316.625 25.316 316.177 25.196C315.625 25.052 315.181 24.908 314.845 24.764C314.517 24.62 314.233 24.396 313.993 24.092C313.761 23.78 313.645 23.364 313.645 22.844C313.645 22.388 313.761 21.984 313.993 21.632C314.225 21.28 314.549 21.008 314.965 20.816C315.389 20.624 315.873 20.528 316.417 20.528C317.201 20.528 317.841 20.724 318.337 21.116C318.841 21.508 319.125 22.028 319.189 22.676H317.989C317.949 22.356 317.781 22.076 317.485 21.836C317.189 21.588 316.797 21.464 316.309 21.464C315.853 21.464 315.481 21.584 315.193 21.824C314.905 22.056 314.761 22.384 314.761 22.808C314.761 23.112 314.845 23.36 315.013 23.552C315.189 23.744 315.401 23.892 315.649 23.996C315.905 24.092 316.261 24.204 316.717 24.332C317.269 24.484 317.713 24.636 318.049 24.788C318.385 24.932 318.673 25.16 318.913 25.472C319.153 25.776 319.273 26.192 319.273 26.72C319.273 27.128 319.165 27.512 318.949 27.872C318.733 28.232 318.413 28.524 317.989 28.748C317.565 28.972 317.065 29.084 316.489 29.084ZM326.388 20.636V21.524H324.108V29H323.016V21.524H320.724V20.636H326.388Z" fill="black"/>
</svg>
