<svg width="464" height="374" viewBox="0 0 464 374" fill="none" xmlns="http://www.w3.org/2000/svg">
<path d="M181.811 305.532L182.182 306.008L185.17 305.457L186.847 305.624L188.115 306.454L188.319 307.358L188.363 310.057L188.022 311.827L188.053 312.279L188.635 312.917L197.351 313.449L198.118 314.601L198.254 315.956L198.687 316.6L200.673 318.043L201.502 318.173L202.17 318.971L201.805 321.274L201.898 323.614L202.746 326.48L203.197 327.52L204.255 328.759L204.725 330.337L204.354 331.086L202.238 330.616L200.574 329L199.003 328.48L197.296 327.155L196.937 325.849L196.201 324.939L194.097 324.376L192.6 324.462L192.427 325.026L192.755 327.198L191.616 330.356L191.814 330.634L193.194 330.535L192.761 332.046L192.309 332.603L188.548 332.504L187.868 333.11L187.824 333.575L188.486 334.776L187.738 338.372L187.719 339.858L188.127 341.4L187.404 343.189L185.845 344.39L185.9 344.866L185.61 345.262L185.746 346.173L186.111 346.587L186.123 347.312L185.709 348.314L186.816 350.401L186.896 351.546L185.436 350.438L183.618 349.565L182.504 349.831L180.475 349.076L178.749 349.15L178.062 349.546L176.126 349.905L175.012 349.738L174.115 348.865L173.75 348.184L173.849 347.503L174.697 345.213L176.813 342.532L178.291 339.939L178.26 338.218L177.852 337.153L177.518 337.122L179.429 330.777L180.729 328.381L181.855 327.341L182.585 325.459L183.135 324.902L183.401 323.658L183.178 321.522L183.352 320.253L182.417 318.742L183.178 318.266L182.943 313.022L182.653 312.186L182.009 311.289L178.706 310.187L177.462 309.141L178.248 307.766L179.089 306.962L181.811 305.532Z" fill="#1C4E63" stroke="white" stroke-width="2"/>
<path d="M424.084 117.036L424.004 118.169L423.497 119.258L422.866 120.23L422.185 120.744L421.09 122.539L420.249 125.566L418.603 127.083L418.306 127.764L417.929 129.627L418.374 131.862L418.851 132.518V133.571L417.855 134.598L417.694 137.452L417.094 138.486L417.174 140.622L416.692 141.823L415.423 143.414L415.263 145.283L414.267 145.927L413.376 147.543L409.744 148.261L407.159 151.901L407.251 152.507L408.204 153.51L408.229 153.907L407.517 155.603L406.373 156.463L406.354 157.559L406.781 158.549L408.445 159.373L409.07 160.357L407.734 162.27L407.653 163.663L407.319 164.461L407.486 165.149L406.818 166.059L407.022 166.541L406.886 167.414L407.152 167.804L406.695 169.166L406.064 170.181L405.464 170.101L404.412 170.918L399.457 171.426L397.755 172.763L396.753 172.942L394.427 175.041L392.101 176.267L392.157 177.096L393.623 177.263L393.926 177.523L393.982 182.154L393.53 182.581L393.017 185.311L393.536 186.593L392.819 189.087L393.004 189.905L391.266 192.876L389.633 194.3L389.627 194.919L390.066 195.532L389.559 196.801L390.344 199.228L389.645 200.373L388.971 200.608L387.938 200.466L387.035 200.8L386.682 201.481L386.583 203.171L385.977 203.629L385.364 204.774L384.016 204.892L381.912 206.6L381.399 206.675L377.761 205.66L377.353 206.068L377.205 207.127L376.475 207.845L375.973 209.733L374.878 211.181L373.437 211.268L372.744 211.819L371.216 211.646L370.072 212.395L368.89 212.599L368.445 213.107L368.024 215.608L368.915 218.839L369.274 222.411L369.237 223.055L368.76 223.402L367.257 226.194L367.641 227.747L367.777 230.056L365.222 233.987L363.063 235.9L361.974 237.764L361.677 239.002L360.984 239.912L360.73 242.048L360.044 243.013L360.471 246.814L360.873 247.929L359.06 248.845L357.848 249.012L356.146 250.956L355.392 250.411L355.423 249.445L354.222 246.585L353.987 244.394L353.53 243.323L353.888 239.924L353.245 238.674L351.915 237.064L349.242 234.687L347.696 232.737L346.756 232.044L345.877 231.777L344.863 232.013L343.112 234.495L341.429 235.727L339.753 234.21L337.953 231.301L336.394 227.135L336.901 226.156L339.462 223.197L341.813 221.204L344.955 217.812L350.294 210.68L354.08 207.449L354.352 206.161L354.117 202.583L357.823 195.501L358.442 193.26L358.281 192.139L357.031 189.762L354.47 188.852L352.824 187.032L352.614 184.655L352.899 183.312L349.645 177.233L348.358 176.434L345.481 175.765L344.578 174.577L341.207 168.275L345.042 167.711L347.127 166.826L352.942 163.322L356.499 160.846L357.18 159.404L356.858 157.113L357.278 150.78L361.201 151.381L362.871 151.263L365.698 150.446L366.774 149.784L367.826 148.607L370.134 145.172L373.969 140.801L375.522 140.263L379.413 139.959L383.063 138.585L384.572 136.963L385.08 135.316L387.134 135.23L388.587 134.524L389.961 132.233L391.26 130.896L392.813 129.986L398.083 130.475L399.859 131.113L401.455 132.072L403.212 133.998L404.715 134.71L406.187 135.341L408.903 135.335L409.608 134.58L410.524 129.776L412.2 126.26L412.955 124.006L413.499 121.468L413.673 116.509L415.584 116.243L415.968 116.701L418.288 117.407L420.676 117.228L424.152 116.15L424.084 117.036Z" fill="#1C4E63" stroke="white" stroke-width="2"/>
<path d="M189.173 363.512V363.518L189.16 363.506L189.173 363.512ZM193.856 363.079L194.456 363.389L195.025 363.271L195.569 363.184L195.774 363.358L193.559 363.822L193.256 363.457L193.856 363.079ZM218.793 358.399L219.337 359.693L218.867 360.2L218.205 360.337L218.069 359.569L218.415 359.507L218.632 358.95L218.793 358.399ZM186.896 351.546L186.822 350.401L185.715 348.321L186.129 347.312L186.117 346.587L185.752 346.173L185.616 345.263L185.906 344.86L185.851 344.384L187.41 343.183L188.14 341.393L187.731 339.852L187.744 338.36L188.492 334.763L187.83 333.562L187.874 333.098L188.554 332.491L192.322 332.591L192.773 332.033L193.206 330.523L191.827 330.622L191.629 330.343L192.767 327.186L192.439 325.013L192.619 324.45L194.116 324.363L196.219 324.927L196.955 325.837L197.314 327.143L199.015 328.468L200.587 328.988L202.251 330.603L201.725 330.665L201.013 332.182L201.422 333.29L201.941 333.482L202.424 334.683L205.375 334.336L208.443 335.995L208.691 337.295L208.313 341.072L209.322 344.247L211.431 347.287L213.405 349.02L215.737 351.701L218.007 353.44L218.372 354.066L218.106 355.403L218.595 355.675L218.613 357.223L218.304 357.501L218.05 357.087L218.007 357.446L218.743 358.17L218.372 359.284L217.914 359.402L217.976 360.039L217.339 360.751L217.487 360.857L216.838 362.33L213.602 361.94L210.052 361.897L203.426 362.237L195.972 363.277L195.65 362.992L194.524 363.215L193.949 362.918L193.404 363.141L192.817 363.085L192.804 363.104L193.114 363.605L193.281 363.871L191.227 364.689L190.62 363.636L189.897 363.234L189.365 363.116L188.771 362.46L189.006 361.897L188.95 361.822L188.622 362.132L188.313 361.897L187.936 361.172L187.96 360.776L188.276 360.578L187.917 357.761L188.511 355.118L188.121 353.694L186.896 351.546Z" fill="#1C4E63" stroke="white" stroke-width="2"/>
<path d="M164.279 276.591L164.551 276.838L164.607 279.079L166.976 278.999L168.485 279.872L169.754 279.921L172.061 280.974L172.284 281.463L171.511 283.599L171.047 284.267L170.001 284.973L168.857 286.508L169.005 287.102L168.622 287.616L168.356 289.071L168.597 289.405L170.978 290.123L171.857 291.238L172.686 293.491L173.496 294.636L173.311 295.231L172.803 295.41L173.057 296.258L172.748 297.261L173.193 297.719L174.362 297.02L174.74 297.1L175.105 298.697L175.928 299.087L175.711 300.418L176.874 302.764L176.985 303.699L177.456 304.306L178.934 305.173L179.961 304.578L180.629 304.634L181.322 305.092L181.297 305.426L181.811 305.532L179.089 306.962L178.247 307.766L177.462 309.141L174.171 310.02L170.842 309.246L166.939 309.964L165.838 310.608L165.262 312.806L163.796 315.659L162.138 315.827L159.348 314.638L158.346 315.133L156.49 317.504L155.197 318.018L153.713 317.888L153.026 317.096L153.651 316.371L154.838 313.957L155.049 312.323L156.144 309.419L157.69 306.603L157.925 302.882L158.717 300.623L157.956 298.289L157.041 293.776L157.09 292.928L156.391 292.228L155.074 286.304L155.03 286.124L156.063 285.648L158.284 286.056L159.169 285.505L160.307 283.951L160.344 282.261L161.111 279.711L162.497 278.281L163.45 277.748L164.279 276.591Z" fill="#1C4E63" stroke="white" stroke-width="2"/>
<path d="M306.112 55.3468L310.9 59.1788L311.606 60.9926L312.082 65.3755L311.964 66.496L313.919 69.3808L314.049 73.5532L314.253 75.2246L314.841 76.9023L314.965 79.298L320.13 92.2425L319.988 95.2882L319.339 96.972L318.726 101.169L319.734 102.116L321.615 102.345L321.12 102.494L319.444 104.822L315.707 106.852L314.117 109.143L312.874 110.226L311.952 110.696L309.533 111.241L308.642 112.083L307.789 113.34L307.189 116.398L305.574 120.998L303.341 124.136L303.217 124.99L307.783 126.841L308.488 127.9L309.026 132.326L309.57 133.038L314.025 134.66L315.311 137.718L315.014 143.061L315.262 144.831L314.748 145.921L312.336 146.311L311.105 146.88L310.294 148.063L310.498 149.065L313.152 151.777L314.699 152.65L320.359 157.039L321.12 159.385L321.498 163.217L323.094 166.486L324.139 167.798L324.059 168.386L323.7 168.485L321.232 168.467L317.248 167.792L310.696 170.794L307.077 170.311L304.238 171.952L300.303 169.829L296.48 167.328L289.632 164.393L283.903 161.341L282.314 161.026L277.612 158.58L275.738 159.682L275.552 160.574L277.513 163.087L277.68 164.164L277.371 165.198L274.426 166.003L272.638 169.228L269.922 170.101L263.711 170.466L260.327 169.55L257.358 169.383L256.424 169.055L255.459 168.225L254.438 165.706L253.881 164.988L253.393 164.548L250.968 163.669L250.596 163.143L250.652 162.097L252.124 159.329L252.267 158.605L252.106 154.928L251.506 152.99L250.392 151.802L249.737 151.672L242.95 153.027L242.975 145.364L242.492 142.392L240.878 139.817L239.158 139.272L237.191 139.223L236.244 139.526L234.679 137.848L232.953 136.765L232.786 136.313L234.24 133.713L234.568 131.261L235.18 130.915L236.782 128.383L237.605 126L237.556 124.761L237.079 123.728L234.692 121.047L234.413 119.815L234.166 115.55L234.444 113.383L235.434 110.554L236.065 110.288L237.735 110.387L238.997 110.071L240.692 108.084L242.332 105.54L245.264 102.958L245.678 102.277L247.213 101.305L248.258 101.12L248.963 101.782L249.669 101.838L253.083 100.494L253.702 100.377L257.414 101.058L262.01 102.55L264.083 101.646L265.505 102.098L266.607 104.37L268.543 104.5L273.306 104.203L275.515 103.639L276.22 103.825L277.872 106.858L278.206 108.189L277.692 113.049L278.194 114.318L279.029 115.16L282.555 115.897L286.019 115.036L286.984 115.141L288.135 115.983L289.657 116.367L290.807 116.014L290.121 113.891L290.145 112.777L291.092 111.594L292.657 110.752L295.156 110.139L296.047 109.656L297.192 108.796L297.872 107.112L297.229 106.208L291.741 105.862L288.203 105.075L284.25 104.599L282.4 103.454L279.121 98.8602L278.472 97.3125L278.181 95.7215L275.806 96.3035L275.076 95.6163L274.735 94.5392L276.288 91.4439L275.966 88.7696L275.063 86.0333L273.944 85.7238L272.242 85.891L270.931 86.5286L269.316 86.5533L268.481 86.1633L268.784 83.5262L270.776 80.7157L274.587 80.4309L277.971 78.549L284.739 76.2399L288.593 74.6861L289.329 74.1042L289.31 72.7113L288.958 71.5475L293.109 58.8011L295.917 57.594L298.07 57.2535L298.682 57.7611L299.196 58.7764L299.27 59.6369L306.112 55.3468Z" fill="#1C4E63" stroke="white" stroke-width="2"/>
<path d="M193.348 228.831L198.996 230.366L204.261 231.14L209.649 233.338L212.693 235.083L215.941 235.696L216.603 235.609L218.656 237.343L221.954 238.723L222.659 238.042L222.715 237.2L219.807 229.995L219.758 228.435L220.389 226.664L221.156 225.791L223.599 224.429L224.453 224.256L226.055 224.145L227.713 224.417L233.955 226.72L238.199 227.679L241.218 227.933L243.668 227.797L243.674 227.364L250.967 232.892L248.623 236.588L249.798 236.94L253.584 235.312L258.205 234.724L263.266 235.021L267.893 236.117L271.073 239.15L273.82 242.648L278.998 247.334L278.911 247.737L279.635 248.579L279.474 249.222L279.82 250.324L279.455 252.324L277.983 255.97L278.162 259.635L277.593 260.52L275.682 261.721L273.554 263.733L271.506 267.546L270.201 274.666L270.578 275.118L270.374 275.786L270.355 281.209L269.18 286.279L268.734 286.465L267.423 286.013L266.94 286.892L267.002 288.13L265.258 289.207L264.15 289.343L262.431 289.071L262.029 288.111L259.01 284.007L255.589 280.46L254.667 280.014L252.755 279.878L246.835 281.265L244.125 280.992L243.377 280.441L243.785 277.489L243.439 276.473L238.094 273.143L234.735 272.097L233.429 272.053L232 272.418L230.695 272.833L229.755 273.576L230.231 276.362L228.289 277.55L226.352 278.064L223.977 277.978L222.702 277.563L221.515 277.841L220.673 278.925L219.213 280.138L217.364 280.441L216.312 279.036L215.792 276.399L214.703 275.594L214.072 277.024L211.963 277.253L210.868 279.036L209.68 279.612L207.855 279.457L205.721 279.705L204.948 284.8L204.335 286.069L203.463 286.434L202.362 285.976L199.881 283.698L199.479 282.744L199.584 282.181L200.995 278.207L200.438 274.728L199.559 273.403L198.619 272.691L196.881 272.474L195.514 273.78L194.214 274.232L192.408 273.291L190.193 271.583L188.406 269.509L186.71 265.479L186.791 265.151L187.045 264.841L187.564 265.2L189.649 267.237L190.156 267.175L190.991 267.825H192.08L192.29 265.089L192.884 264.197L196.868 262.266L198.91 260.341L200.11 256.732L200.37 254.299L200.661 253.5L201.421 252.751L201.644 251.631L200.729 251.34L198.681 251.538L197.895 250.888L197.128 247.464L196.776 243.249L196.769 238.977L196.318 237.832L194.647 236.216L193.484 234.223L193.15 230.589L193.348 228.831Z" fill="#1C4E63" stroke="white" stroke-width="2"/>
<path d="M411.409 8.02625L411.842 11.5239L411.328 13.3811L413.487 17.2564L413.364 18.8164L413.079 19.1197L413.252 17.7764L412.609 18.5997L412.473 19.7883L413.945 21.3669L415.467 21.7445L415.065 22.1593L415.238 22.4936L415.721 22.6112L418.48 27.2727L420.23 29.1793L420.88 29.3155L421.944 29.9098L422.952 30.6527L425.347 31.117L425.507 31.6494L425.149 31.6432L424.802 32.3241L424.678 31.6803L424.27 32.0394L423.812 32.0146L424.703 33.0051L424.87 34.0946L427.27 33.3765L428.7 31.7608L430.228 30.5103L431.217 30.0955L430.549 31.1851L430.642 31.4637L431.044 31.346L431.397 32.7946L431.193 32.9308L430.778 32.0765L430.252 32.3737L429.9 33.1351L428.65 33.488L429.065 34.6518L428.328 35.3513L427.178 37.6604L427.431 38.1371L428.279 37.8585L428.236 39.369L427.877 40.0809L428.403 40.1057L428.192 40.9476L427.481 41.9009L427.728 42.2538L428.7 41.9876L428.879 42.3281L427.252 43.1886L428.471 43.4981L428.378 44.049L429.12 44.08L428.656 44.6062L427.84 44.8105L427.914 45.0705L428.681 44.9281L428.755 45.2995L428.458 45.5719L428.316 45.3429L427.691 45.4853L427.84 45.9495L428.297 45.8753L427.772 46.9091L428.706 47.0391L428.842 47.8686L428.489 48.3267L428.65 49.1005L429.25 49.2367L429.578 49.9858L429.429 50.6977L430.636 51.0382L430.846 51.942L431.224 52.2639L432.22 51.6758L432.504 51.7996L432.943 52.982L433.698 53.4215L433.89 54.0901L435.226 54.5668L435.208 55.2477L435.622 55.8668L435.393 56.6035L435.832 56.9997L436.519 57.3402L437.391 57.0306L438.629 57.1916L438.461 57.8354L438.975 57.8725L439.216 57.4454L440.336 57.4021L441.245 56.9006L442.767 56.8511L442.872 57.6063L443.534 57.6621L443.46 58.2254L442.687 58.4235L442.823 58.7516L442.588 59.1478L443.175 59.3211L444.567 60.9369L446.683 60.6088L447.32 60.5778L447.586 61.0792L448.65 60.5407L450.463 61.0792L452.628 60.8626L453.049 61.0545L453.575 61.1288L454.571 61.3392L455.059 62.0821L455.845 62.2926L456.055 62.8312L455.641 62.8435L455.69 63.5369L457.033 64.1621L457.466 65.0102L457.02 65.8707L458.87 66.3474L459.34 67.276L459.006 67.5607L459.705 67.895L460.188 67.9693L460.262 67.666L460.862 67.6165L461.178 67.3007L462 68.8546L461.153 69.6532L460.955 70.7674L460.497 71.306L460.918 72.5441L459.854 73.2622L459.817 74.2342L461.178 76.5742L460.429 77.6513L460.571 78.4871L459.136 80.2018L459.142 81.1304L459.322 83.4766L458.889 84.2381L457.15 85.5691L457.113 85.9095L457.893 86.9743L459.136 87.6738L460.472 89.0234L460.744 90.3605L460.361 93.2577L459.581 93.8334L455.647 95.4244L453.247 95.9815L452.195 97.8944L447.19 99.8568L445.161 101.138L443.967 102.779L441.208 103.98L439.773 104.004L438.09 102.537L436.531 102.265L435.869 101.751L435.208 101.85L434.83 102.321L434.471 103.757L433.185 105.218L432.702 106.877L432.257 107.527L431.353 108.121L431.502 109.044L431.1 109.174L430.432 110.214L428.996 111.476L428.248 113.278L426.244 114.275L424.746 114.609L424.27 115.073L424.153 116.15L420.676 117.228L418.288 117.407L415.968 116.701L415.585 116.243L413.673 116.509L413.5 121.468L412.955 124.006L412.201 126.26L410.524 129.776L409.609 134.58L408.903 135.335L406.188 135.341L404.715 134.71L403.212 133.998L401.455 132.072L399.859 131.113L398.084 130.475L392.813 129.986L391.26 130.896L389.961 132.233L388.588 134.524L387.134 135.23L385.08 135.316L384.573 136.963L383.063 138.585L379.413 139.959L375.522 140.263L373.969 140.801L370.134 145.172L367.826 148.607L366.775 149.784L365.698 150.446L362.871 151.263L361.201 151.381L357.279 150.78L354.86 149.418L353.74 148.428L351.804 144.608L348.302 143.16L347.17 142.033L345.667 139.86L345.166 138.108L348.371 133.428L348.754 131.559L347.919 129.516L349.8 129.089L351.909 126.284L351.736 121.09L352.113 119.376L353.177 117.624L354.823 116.435L361.758 114.566L365.538 112.306L366.83 110.399L366.979 108.579L366.509 106.01L366.484 104.172L367.041 102.401L368.829 100.327L370.87 96.6749L373.679 93.9325L374.291 92.6263L373.771 90.5648L371.835 88.2434L368.798 88.3734L368.402 88.1505L368.309 86.9495L371.229 81.2914L370.183 76.6856L370.264 74.5189L371.835 64.4345L371.866 60.8502L370.802 58.4792L371.142 57.1173L375.51 53.2111L376.976 51.3044L378.114 48.6981L377.817 46.3829L374.848 44.0057L373.951 42.879L373.19 40.4957L374.112 35.5308L374.161 32.9246L375.058 32.8503L377.768 33.3951L377.786 32.6584L378.151 32.4046L378.195 31.9465L378.312 30.8879L379.228 30.0646L379.933 30.2132L380.768 29.7613L380.558 29.0432L381.009 28.3746L380.867 28.1765L380.317 28.0589L380.564 27.3593L381.04 26.536L381.535 25.4341L381.931 25.0626L383.342 25.2793L384.195 24.7407L384.789 24.7964L385.167 25.2545L385.76 24.5674L385.903 23.676L386.732 23.5336L387.641 23.354L387.82 23.0693L387.61 22.8217L388.216 22.0974L389.522 21.8002L389.905 21.0326L390.753 20.5497L390.852 20.0607L391.211 19.6026L391.458 19.1445L391.446 18.6121L392.126 18.3459L392.392 17.7145L391.891 17.5225L392.244 17.1449L393.005 17.5349L392.825 16.563L393.506 16.6373L393.543 16.9283L394.069 17.1078L394.749 17.0211L395.906 15.9873L396.537 15.7582L396.735 15.9935L397.96 15.9316L398.82 15.1082L399.451 15.4116L399.482 14.743L400.15 14.5201L400.781 14.5758L400.23 15.3001L401.14 15.7892L401.709 14.9782L402.544 15.622L402.42 14.8111L403.336 14.4954L403.144 15.783L403.713 15.8573L403.991 15.2568L404.703 15.102L405.272 15.9625L405.866 14.3963L406.893 13.8763L406.905 13.6039L406.565 13.4863L406.682 13.0468L407.419 13.1706L407.815 12.6753L407.419 12.5701L407.171 11.9387L408.211 10.9482L408.173 10.5891L409.095 10.1744L409.064 9.59864L409.714 8.94245L410.481 8.79387L410.722 8.13767L411.409 8.02625Z" fill="#1C4E63" stroke="white" stroke-width="2"/>
<path d="M157.195 359.792L157.065 359.408L156.644 359.47L154.195 357.86L153.452 355.149L152.598 353.991L151.367 353.979L147.322 355.551L146.678 355.39L146.462 354.189L146.721 353.286L144.674 352.394L144.365 351.88L144.408 349.194L145.583 347.541L146.053 346.272L146.072 345.485L145.274 345.584L144.754 345.102L145.577 342.353L148.355 337.5L150.068 337.605L150.409 337.295L150.872 335.754L151.825 335.265L151.683 334.144L152.66 333.482L153.248 332.566L153.229 331.365L152.84 330.411L152.37 330.052L151.182 329.539L149.363 329.842L148.72 329.669L149.196 331.198L148.454 331.724L145.311 333.08L143.152 332.807L141.457 333.11L140.214 335.649L138.908 335.971L138.419 335.599L137.51 335.55L137.287 336.138L137.448 337.568L135.698 338.533L134.695 338.88L132.833 338.732L132.072 339.963L130.643 340.347L129.474 339.932L128.862 338.905L127.556 338.112L127.092 338.422L126.177 340.322L124.135 341.338L122.515 341.078L117.887 343.616L117.306 343.387L115.87 343.634L115.252 342.953L113.588 341.963L111.701 341.523L109.907 340.496L108.608 339.196L108.261 339.642L107.816 339.289L106.931 339.617L106.709 339.307L105.7 339.827L107.16 342.681L108.342 346.278L108.131 346.767L108.719 347.708L108.936 348.859L111.447 353.05L111.565 353.942L112.146 354.282L112.152 354.387L112.183 355.068L116.823 361.494L117.559 361.878L117.547 362.342L119.261 363.178L119.094 363.432L119.743 363.896L119.817 364.298L121.401 365.283L121.519 365.041L121.71 365.252L121.574 365.4L121.587 365.611L123.201 366.948L123.498 366.936L123.412 366.459L123.133 366.329L124.111 366.044L123.64 366.478L123.845 366.923L123.684 367.09L123.727 367.406L125.162 368.459L128.299 369.92L128.416 368.681L127.928 368.366L127.587 367.592L127.798 367.666L127.977 368.217L128.466 368.353L128.392 367.92L128.645 367.939L128.633 368.372L128.954 368.477L129.115 368.954L128.732 369.684L128.893 369.95L128.682 370.755L128.93 370.935L132.134 371.752L132.252 370.371L132.654 370.012L132.889 372.39L138.048 371.956L137.652 370.47L138.29 368.582L138.692 367.901L138.512 367.053L137.331 366.341L137.628 366.31L138.364 366.478L138.958 367.456L139.329 366.756L138.989 366.267L139.044 364.942L138.525 364.107L138.716 363.648L138.822 364.286L139.248 364.627L139.267 364.862L139.725 366.112L139.663 368.031L141.346 366.502L140.987 366.112L141.049 364.911L142.23 364.54L142.54 364.15L142.966 365.147L143.041 365.945L142.744 366.583L143.115 367.4L143.146 368.397L143.975 368.558L144.643 369.492L144.94 369.461L144.822 369.666L144.958 369.932L146.301 369.635L146.418 369.845L146.035 370.248L146.981 370.737L152.215 370.173L152.227 369.876L151.98 369.56L151.937 369.084L151.875 368.873L152.289 368.341L152.66 367.982L152.339 369.245L152.475 369.486L153.731 370.576L154.324 369.969L156.508 369.734L156.199 368.205L156.143 367.969L155.908 367.27L155.197 366.806L155.079 366.193L155.092 366.075L155.271 365.419L154.943 364.026L154.689 363.686L154.906 363.463L155.376 364.02L156.149 366.62L156.384 366.261L155.982 363.023L157.034 360.925L157.195 359.792ZM108.756 347.776L108.762 347.782L108.756 347.776ZM145.571 370.978L140.486 371.591L138.754 371.529L138.617 371.096L139.459 369.536L139.552 369.523L139.83 369.548L139.917 368.743L141.141 367.388L141.216 367.196L141.482 366.645L141.76 366.527L141.395 366.05L141.284 365.246L141.624 365.029L142.261 364.911L142.818 365.741L142.509 366.564L142.991 367.567L142.855 368.539L143.863 368.811L144.266 369.381L145.571 370.978Z" fill="#1C4E63" stroke="white" stroke-width="2"/>
<path d="M217.364 280.441L219.213 280.138L220.673 278.925L221.515 277.841L222.702 277.563L223.977 277.978L226.352 278.064L228.289 277.55L230.231 276.362L229.755 273.576L230.695 272.833L232 272.418L233.43 272.053L234.735 272.097L238.094 273.143L243.439 276.473L243.785 277.489L243.377 280.441L244.126 280.992L246.835 281.265L252.755 279.878L254.667 280.014L255.589 280.46L259.01 284.007L262.029 288.112L262.431 289.071L261.088 294.234L257.902 292.866L257.42 294.005L257.408 295.231L257.049 295.683L256.381 296.264L254.648 299.273L252.65 299.855L251.642 300.592L250.9 301.322L250.312 302.87L249.699 303.47L244.305 308.28L241.948 309.97L241.255 310.175L240.241 311.598L239.195 312.137L238.391 313.053L238.638 313.586L239.48 314.229L238.83 315.146L239.078 315.659L238.799 316.254L237.89 317.411L237.537 317.052L237.568 317.981L240.723 321.472L240.915 322.562L239.43 325.069L239.034 326.555L238.341 327.397L238.471 329.805L237.352 333.445L237.444 337.506L235.873 340.106L234.704 340.583L234.654 341.103L233.825 341.746L233.071 343.789L232.297 344.433L232.897 345.065L232.341 345.281L231.734 346.049L231.765 346.402L231.141 346.637L231.196 347.727L229.978 348.191L229.347 348.965L229.334 349.559L230.077 350.265L230.287 351.212L228.79 352.116L228.116 351.967L227.695 351.521L227.058 352.029L226.662 352.97L226.198 353.298L226.099 354.208L226.513 354.251L226.884 353.168L227.045 354.722L226.823 355.068L226.557 354.654L226.185 354.74L226.544 355.632L225.629 355.799L225.666 356.269L224.565 356.449L223.655 356.078L223.971 354.982L224.633 354.908L223.847 353.911L223.352 354.666L222.634 354.963L221.354 354.678L220.952 353.967L221.428 353.533L221.558 353.434L221.366 352.871L220.525 353.125L219.826 352.735L218.354 354.084L217.989 353.459L215.718 351.719L213.38 349.033L211.413 347.299L209.303 344.26L208.295 341.084L208.672 337.308L208.431 336.008L205.362 334.349L202.411 334.695L201.923 333.494L201.409 333.302L201.001 332.194L201.712 330.678L202.238 330.616L204.354 331.086L204.725 330.337L204.255 328.759L203.197 327.521L202.746 326.481L201.898 323.614L201.805 321.274L202.17 318.971L201.502 318.173L201.737 316.693L203.185 314.768L202.962 313.121L203.865 312.341L204.076 311.506L205.3 310.088L205.35 308.59L204.645 307.476L204.762 306.869L206.167 306.2L207.787 306.089L209.451 308.875L210.28 307.587L211.617 307.11L212.978 306.052L213.151 305.241L214.314 305.061L215.662 305.841L216.182 305.278L216.603 303.854L216.665 302.251L217.16 301.341L221.44 296.147L221.453 295.28L220.302 293.671L220.296 292.68L221.317 291.671L222.672 291.442L223.185 290.39L223.037 289.74L222.183 289.121L221.929 288.192L221.608 287.963L221.669 286.762L220.878 286.069L220.568 285.01L218.898 283.852L217.667 282.23L217.364 280.441Z" fill="#1C4E63" stroke="white" stroke-width="2"/>
<path d="M157.956 298.289L157.041 293.776L157.09 292.928L156.391 292.228L155.074 286.304L153.911 287.567L151.374 287.331L149.067 287.833L144 291.002L139.453 292.922L136.96 295.726L136.564 295.757L134.968 293.318L134.343 293.058L133.31 292.866L132.209 293.844L131.658 295.101L131.566 296.568L131.813 297.032L132.716 297.533L133.05 300.517L134.306 302.74L135.519 304.238L136.682 305.142L138.061 305.643L138.241 306.726L137.808 308.732L136.849 309.915L135.84 310.942L133.935 312.199L132.518 314.099L130.799 315.331L129.679 315.703L126.443 316.347L125.126 316L125.559 314.886L124.569 313.889L125.831 311.394L125.54 310.88L123.121 309.426L121.884 307.674L118.995 306.052L117.034 305.278L116.02 304.448L112.852 305.594L111.708 307.067L110.613 306.819L109.208 305.594L108.355 305.414L106.394 305.829L104.55 305.383L103.938 305.575L103.548 305.761L103.511 306.398L104.061 307.37L103.74 308.026L101.203 310.02L100.176 310.063L100.146 308.534L99.7372 306.956L100.17 305.142L100.077 304.256L99.0505 303.223L95.6914 301.489L91.4229 311.852L92.957 314.626L93.8169 315.17L94.1757 314.18L94.9862 313.406L99.7867 310.794L100.566 310.657L101.711 309.865L102.41 309.531L102.632 309.846L102.62 309.952L101.383 310.54L100.758 311.53L100.715 311.691L100.201 311.363L98.8093 311.97L96.842 313.524L96.6317 313.988L95.4068 313.709L94.7573 314.217L94.2685 316.161L94.4294 317.114L96.0564 319.9L98.0236 321.844L98.7165 321.516L100.579 320.686L102.416 320.94L102.874 318.984L103.585 317.653L103.573 317.418L103.82 317.232V317.238L104.055 317.312L103.913 317.399L103.764 318.575L103.072 319.98L103.69 321.299L104.872 321.689L105.88 321.522L106.858 319.553L107.847 319.615L107.965 319.46V319.467L109.815 320.42L110.508 320.835L110.625 321.132L109.889 320.921L110.056 321.398L110.118 322.215L109.295 321.999L109.895 321.584L109.691 320.754L108.998 320.309L107.062 320.129L106.691 320.216L106.746 321.225L106.406 321.924L104.958 323.144L105.577 322.166L104.47 322.259L103.171 321.918L100.424 321.503L99.2114 321.621L99.1372 322.141L98.135 322.81L97.3555 323.843L99.0691 326.295L100.95 327.911L104.686 329.539L107.835 329.718L107.847 329.316L107.111 328.455L106.524 326.66L106.363 326.381L106.406 325.923L106.697 325.849L106.579 326.357L107.198 327.719L107.711 327.347H107.934L107.891 327.483L107.303 328.152L107.464 328.461L109.103 329.155L109.456 329.025L110.477 326.053L110.996 325.15L111.59 324.766L111.194 324.561L113.174 324.636L113.471 324.729L114.12 324.444L114.405 323.744L114.863 323.509L115.556 323.614L116.143 324.178L116.521 323.769L116.576 323.911L116.502 324.376L115.951 324.4L115.098 323.819L114.473 324.859L113.496 325.348L112.376 325.273L112.512 325.806L111.918 325.199L111.101 325.422L110.761 327.291L110.928 328.109L111.287 328.777L111.565 329.223L113.644 329.898L113.458 330.393L112.5 329.7L112.097 329.922L112.079 330.356L112.036 330.492L111.732 330.572L111.93 329.662L111.739 329.588L111.473 329.378L111.194 329.093L110.916 329.39L110.458 329.7L110.235 330.028L109.747 330.102L109.054 330.455L109.617 330.74L110.885 330.678L109.048 331.272L108.8 331.662L108.182 330.665L107.81 330.696L107.637 330.684L106.072 330.777L105.348 331.167L105.305 330.925L104.878 330.882L104.624 330.69L104.21 330.826L103.696 330.56L103.727 332.071L104.909 336.794L104.76 337.822L106.047 339.221L107.315 338.676L108.955 338.571L108.404 337.735L108.349 337.042L108.441 336.893L108.751 335.42L108.93 335.401L108.837 335.773L108.93 336.026L108.608 337.692L109.153 338.032L109.091 338.979L108.596 339.171L109.895 340.471L111.689 341.499L113.576 341.938L115.24 342.929L115.859 343.61L117.294 343.362L117.875 343.591L122.503 341.053L124.124 341.313L126.165 340.298L127.081 338.397L127.545 338.088L128.85 338.88L129.462 339.908L130.632 340.323L132.061 339.939L132.822 338.707L134.684 338.855L135.686 338.509L137.436 337.543L137.276 336.113L137.498 335.525L138.408 335.574L138.896 335.946L140.202 335.624L141.445 333.086L143.14 332.782L145.299 333.055L148.442 331.699L149.184 331.173L148.708 329.644L148.355 329L148.485 328.728L150.663 327.607L150.78 324.326L151.213 323.41L152.482 322.531L153.032 321.448L153.539 319.479L152.865 317.288L153.007 317.071L153.632 316.347L154.82 313.932L155.03 312.304L156.119 309.401L157.666 306.584L157.901 302.864L158.686 300.604L157.956 298.289Z" fill="#1C4E63" stroke="white" stroke-width="2"/>
<path d="M199.584 282.181L199.478 282.744L199.881 283.698L202.361 285.976L203.462 286.434L204.335 286.069L204.947 284.799L205.72 279.705L207.855 279.457L209.68 279.612L210.867 279.036L211.962 277.253L214.072 277.024L214.703 275.594L215.792 276.399L216.311 279.036L217.363 280.441L217.666 282.23L218.897 283.852L220.568 285.01L220.877 286.069L221.669 286.762L221.607 287.963L221.929 288.192L222.182 289.12L223.036 289.74L223.184 290.39L222.671 291.442L221.316 291.671L220.295 292.68L220.302 293.671L221.452 295.28L221.44 296.147L217.159 301.341L216.664 302.251L216.602 303.854L216.181 305.278L215.662 305.841L214.313 305.061L213.15 305.241L212.977 306.052L211.616 307.11L210.28 307.587L209.451 308.874L207.787 306.089L206.166 306.2L204.762 306.869L204.644 307.475L205.349 308.59L205.3 310.088L204.075 311.505L203.865 312.341L202.961 313.121L203.184 314.768L201.736 316.693L201.501 318.173L200.672 318.043L198.687 316.6L198.254 315.956L198.117 314.601L197.35 313.449L188.634 312.917L188.052 312.279L188.021 311.827L188.362 310.057L188.318 307.358L190.564 306.733L191.795 307.785L192.271 307.841L193.577 309.395L194.028 309.438L194.43 308.546L193.936 306.739L193.843 305.104L195.495 303.414L195.989 302.343L195.377 298.233L194.993 296.654L194.325 295.992L194.338 295.231L196.033 291.448L196.039 287.845L195.637 287.133L195.402 285.097L194.486 282.063L198.476 282.404L199.584 282.181Z" fill="#1C4E63" stroke="white" stroke-width="2"/>
<path d="M130.675 245.997L131.151 246.393L132.234 246.164L132.667 246.387L132.84 246.808L132.605 247.359L132.89 247.761L134.238 247.607L134.405 248.102L133.811 249.247L133.669 250.442L133.842 251.092L134.51 251.575L135.828 251.903L139.503 250.089L140.468 251.389L140.87 251.346L141.649 252.219L141.99 252.181L143.202 253.562L144.6 253.444L145.058 253.129L146.642 253.221L147.297 254.466L147.341 255.221L147.867 255.599L148.164 256.676L148.621 257.022L148.473 257.338L148.881 258.347L151.201 257.827L151.467 258.062L152.37 257.45L153.527 257.196L154.61 258.069L154.95 259.381L155.847 260.05L156.336 261.294L156.428 263.405L156.237 264.593L155.234 267.033L155.272 269.608L154.09 272.592L152.754 274.789L153.546 276.12L152.97 279.537L153.521 281.147L154.393 282.391L155.03 286.124L155.074 286.304L153.911 287.56L151.38 287.325L149.073 287.827L144.006 290.99L139.459 292.909L136.966 295.713L136.564 295.738L134.968 293.299L134.343 293.045L133.316 292.847L132.209 293.831L131.659 295.082L131.566 296.549L131.813 297.013L132.716 297.515L133.05 300.499L134.306 302.715L135.519 304.213L136.682 305.117L138.061 305.618L138.235 306.695L137.808 308.701L136.849 309.884L135.847 310.911L133.941 312.168L132.518 314.068L130.805 315.3L129.685 315.672L126.444 316.315L125.126 315.963L125.559 314.848L124.569 313.852L125.825 311.357L125.534 310.843L123.121 309.388L121.884 307.636L118.989 306.014L117.034 305.241L116.02 304.411L112.852 305.556L111.708 307.03L110.613 306.782L109.208 305.556L108.355 305.377L106.394 305.792L104.556 305.346L103.944 305.538L103.548 305.723L103.511 306.361L104.061 307.333L103.74 307.989L101.21 309.989L100.183 310.032L100.152 308.503L99.7435 306.924L100.183 305.111L100.09 304.225L99.063 303.192L95.7038 301.464L95.9451 300.746L95.1842 299.347L94.3614 298.703L93.3963 298.648L92.3756 296.828L91.1755 295.986L90.7424 295.949L90.4702 295.385L90.6249 295.02L90.4517 295.292L90.9466 294.859L91.5405 292.612L91.8993 292.234L93.7242 291.696L94.2439 289.38L95.3203 288.322L95.8399 287.108L96.0564 286.044L95.7038 285.146L94.8377 283.735L94.0768 283.338V281.58L94.5779 280.974L94.5161 279.599L94.8192 279.005L95.9018 278.002L96.1802 277.365L97.2504 276.869L97.7391 275.464L98.333 275.037L98.3887 273.83L98.6671 273.347L100.028 272.722L101.346 272.969L102.756 272.734L103.795 272.957L107.903 273.025L109.938 272.79L110.953 273L112.029 274.288L110.786 275.687L112.085 279.067L112.543 279.048L114.875 277.092L115.704 277.166L116.44 278.083L116.941 278.299L118.599 277.668L119.533 275.569L120.121 272.499L120.276 272.344L121.012 272.66L121.018 271.651L121.563 271.329L121.47 270.827L120.74 270.035L121.117 267.163L121.884 266.135L122.825 265.683L123.053 265.157L122.855 264.637L124.854 260.372L124.761 259.511L125.052 258.867L126.14 257.734L127.47 257.084L128.355 254.893L128.089 254.72L127.613 253.184L128.151 251.395L126.907 250.888L126.66 250.368L126.771 249.507L127.644 248.442L128.609 248.529L129.159 248.158L130.675 245.997Z" fill="#1C4E63" stroke="white" stroke-width="2"/>
<path d="M93.7486 228.428L94.0022 228.323L94.3796 229.357L95.0168 229.66L97.7882 228.887L98.3759 229.116L99.2853 230.391L99.873 230.694L101.314 230.552L102.737 230.936L103.944 230.577L104.742 230.917L105.385 229.58L105.206 229.19L105.713 227.816L108.255 226.986L111.819 226.93L111.144 227.19L111.126 229.84L111.466 230.118L113 229.239L115.271 228.843L116.7 229.01L117.046 229.444L116.873 230.292L116.044 230.688L114.627 232.551L114.578 233.517L115.394 235.839L116.211 236.433L117.003 236.451L118.147 237.498L122.366 238.977L121.426 240.463L120.919 240.649L119.991 239.875L118.84 240.116L118.314 241.391L116.966 242.289L115.481 243.824L114.782 245.149L113.724 250.163L112.672 252.59L110.786 255.333L107.365 257.493L105.96 257.128L105.286 255.469L105.385 254.936L104.742 252.962L103.863 251.587L102.904 251.265L98.5924 251.457L93.7795 251.185L90.9648 252.082L90.4513 251.03L89.9316 248.684L88.1685 244.901L87.7417 241.942L88.4779 239.472L87.9768 237.733L88.051 236.866L89.2264 234.235L90.2286 233.307L91.5772 232.725L92.8083 231.709L93.7486 228.428Z" fill="#1C4E63" stroke="white" stroke-width="2"/>
<path d="M164.279 276.591L165.968 273.489L166.531 273.644L166.642 275.056L167.1 275.086L167.923 276.331L168.35 276.541L169.117 276.337L172.192 273L175.891 270.611L179.714 266.017L181.224 265.454L182.547 264.154L184.595 263.683L186.105 264.148L186.791 265.151L186.711 265.479L188.406 269.509L190.194 271.583L192.408 273.291L194.215 274.232L195.514 273.78L196.881 272.474L198.619 272.691L199.56 273.403L200.438 274.727L200.995 278.207L199.584 282.181L198.477 282.404L194.487 282.063L195.403 285.097L195.638 287.133L196.04 287.845L196.034 291.448L194.338 295.231L194.326 295.992L194.994 296.654L195.378 298.233L195.99 302.343L195.495 303.414L193.844 305.104L193.936 306.739L194.431 308.546L194.029 309.438L193.578 309.394L192.272 307.841L191.796 307.785L190.565 306.733L188.319 307.358L188.115 306.454L186.847 305.624L185.17 305.457L182.182 306.008L181.811 305.532L181.298 305.426L181.323 305.092L180.63 304.634L179.962 304.578L178.935 305.173L177.456 304.306L176.986 303.699L176.875 302.764L175.712 300.418L175.928 299.087L175.105 298.697L174.74 297.1L174.363 297.02L173.194 297.719L172.748 297.261L173.058 296.258L172.804 295.41L173.311 295.231L173.497 294.636L172.686 293.491L171.858 291.238L170.979 290.123L168.597 289.405L168.356 289.071L168.622 287.616L169.006 287.102L168.857 286.508L170.002 284.973L171.047 284.267L171.511 283.598L172.284 281.463L172.062 280.974L169.754 279.921L168.486 279.872L166.977 278.999L164.607 279.079L164.551 276.838L164.279 276.591Z" fill="#1C4E63" stroke="white" stroke-width="2"/>
<path d="M179.788 179.641L183.574 179.251L185.553 179.449L186.494 179.975L187.193 179.449L188.312 177.567L188.968 177.233L189.63 177.499L190.539 179.424L191.121 179.616L191.851 179.127L191.808 180.637L191.548 181.021L190.911 181.065L190.583 181.442L189.277 185.478L189.228 188.958L189.543 190.313L189.203 194.647L187.978 197.909L187.038 202.831L186.549 203.053L185.881 205.158L185.238 206.173L182.899 209.034L178.594 211.287L175.729 211.943L173.929 212.686L167.044 213.769L166.178 214.054L161.563 213.961L160.431 214.091L159.552 213.8L158.346 210.761L158.63 209.913L158.167 191.211L158.389 182.755L158.6 182.519L160.257 182.315L167.081 182.024L168.17 182.414L173.855 187.428L174.436 187.28L179.788 179.641Z" fill="#1C4E63" stroke="white" stroke-width="2"/>
<path d="M321.614 102.346L322.177 101.801L324.757 100.866L327.256 100.971L329.1 101.596L330.448 102.395L335.701 106.27L338.639 110.232L340.755 112.448L340.136 113.402L341.114 112.77L343.39 114.863L343.805 117.878L343.062 125.213L343.539 129.206L343.724 129.522L347.918 129.516L348.754 131.559L348.37 133.428L345.166 138.108L345.667 139.86L347.17 142.033L348.302 143.16L351.803 144.608L353.74 148.428L354.859 149.418L357.278 150.78L356.858 157.113L357.179 159.404L356.499 160.846L352.942 163.322L347.127 166.826L345.042 167.711L341.206 168.275L337.266 168.566L329.558 168.553L325.908 168.925L323.699 168.485L324.058 168.386L324.138 167.798L323.093 166.486L321.497 163.217L321.119 159.385L320.359 157.039L314.698 152.65L313.151 151.777L310.498 149.066L310.293 148.063L311.104 146.88L312.335 146.311L314.748 145.921L315.261 144.831L315.014 143.061L315.31 137.718L314.024 134.66L309.57 133.038L309.025 132.326L308.487 127.9L307.782 126.841L303.216 124.991L303.34 124.136L305.573 120.998L307.188 116.398L307.788 113.34L308.642 112.083L309.533 111.241L311.951 110.697L312.873 110.226L314.117 109.143L315.706 106.852L319.443 104.822L321.119 102.494L321.614 102.346Z" fill="#1C4E63" stroke="white" stroke-width="2"/>
<path d="M177.462 309.141L178.706 310.187L182.009 311.289L182.653 312.186L182.943 313.022L183.178 318.266L182.417 318.742L183.352 320.253L183.178 321.522L183.401 323.658L183.135 324.902L182.585 325.459L181.855 327.341L180.729 328.381L179.43 330.777L177.518 337.122L175.928 337.71L173.132 337.011L171.814 337.035L169.247 337.692L166.346 337.004L162.188 337.091L160.864 336.837L159.528 335.816L158.464 333.711L157.326 332.906L157.165 332.058L157.839 330.35L158.161 327.483L157.883 326.456L156.571 325.979L154.431 326.394L153.497 326.121L155.198 318.018L156.491 317.504L158.347 315.133L159.349 314.638L162.139 315.827L163.797 315.659L165.263 312.806L165.838 310.608L166.939 309.964L170.843 309.246L174.171 310.02L177.462 309.141Z" fill="#1C4E63" stroke="white" stroke-width="2"/>
<path d="M270.33 42.8295L271.438 43.56L275.15 44.0119L277.092 42.8976L278.391 40.4276L281.682 38.8243L283.637 38.4343L285.382 37.5861L289.298 36.3728L290.665 37.1466L291.982 40.1057L292.409 42.7986L293.312 44.3648L294.005 43.9191L297.63 42.7676L300.717 44.1419L301.973 43.7643L303.118 44.3091L304.485 46.4139L305.574 53.5516L306.112 55.3468L299.27 59.6369L299.196 58.7764L298.682 57.7611L298.07 57.2535L295.917 57.594L293.108 58.8012L288.957 71.5475L289.31 72.7113L289.328 74.1042L288.592 74.6861L284.738 76.2399L277.97 78.549L274.587 80.4309L270.776 80.7157L268.784 83.5262L268.481 86.1634L269.316 86.5534L270.93 86.5286L272.242 85.891L273.943 85.7239L275.063 86.0334L275.966 88.7696L276.288 91.4439L274.735 94.5392L275.075 95.6163L275.805 96.3035L278.181 95.7216L278.472 97.3126L279.121 98.8602L282.4 103.454L284.25 104.599L288.203 105.076L291.741 105.862L297.228 106.208L297.872 107.112L297.191 108.796L296.047 109.657L295.156 110.139L292.657 110.752L291.092 111.594L290.145 112.777L290.12 113.891L290.807 116.014L289.656 116.367L288.135 115.983L286.984 115.141L286.019 115.036L282.555 115.897L279.028 115.16L278.193 114.318L277.692 113.049L278.206 108.189L277.871 106.858L276.22 103.825L275.515 103.639L273.306 104.203L268.543 104.5L266.606 104.37L265.505 102.098L264.082 101.646L262.01 102.55L257.413 101.058L253.702 100.377L253.083 100.494L253.034 99.1078L253.702 96.8049L258.106 92.5458L257.556 91.8339L256.263 91.5058L254.512 89.8715L253.596 88.1691L253.287 86.931L252.613 86.3181L249.483 86.411L249.359 85.1977L249.668 83.9038L251.747 81.0005L251.864 79.7314L252.52 78.5923L252.403 77.0695L250.992 72.6246L250.219 72.9528L249.309 74.0361L247.874 74.9152L246.748 75.0266L245.901 74.8718L245.895 73.2808L245.542 72.3894L243.599 72.5442L242.424 73.2808V72.6432L241.403 72.1975L241.731 71.1327L242.461 70.2722L242.511 66.7993L242.016 64.9793L241.447 64.4779L240.302 64.1312L236.937 63.7845L236.423 63.5245L235.792 62.6641L236.145 61.4198L235.464 59.5131L233.107 58.2007L232.408 57.3464L232.13 53.6816L227.317 52.4311L224.985 52.6478L222.517 53.8425L221.446 54.6783L221.063 56.2878L219.906 58.5226L219.244 57.8292L219.182 56.6159L217.011 52.7282L216.244 51.1063L215.73 50.673L212.674 50.5987L210.905 50.023L210.54 49.5772L210.497 47.1939L210.961 45.0891L210.948 43.4238L211.233 43.2381L217.66 42.3838L220.982 42.9967L226.686 42.5138L227.41 43.2753L228.282 46.1724L228.703 46.7544L230.348 47.7882L231.579 48.1101L233.2 47.1753L233.596 48.141L234.518 48.5744L236.795 48.2339L239.38 47.1567L241.354 45.5596L241.991 43.9315L242.35 43.4672L243.587 42.9224L243.593 42.39L244.379 42.1486L250.602 42.421L256.182 43.3L259.424 42.8357L263.173 43.3186L269.378 43.5972L270.33 42.8295Z" fill="#1C4E63" stroke="white" stroke-width="2"/>
<path d="M197.611 99.8445L199.522 99.8569L201.032 99.4421L203.618 97.0712L206.587 95.313H207.608L210.132 94.5454L210.887 94.663L211.586 95.1707L211.784 95.9445L210.478 98.4331L210.806 100.024L211.45 100.755L213.633 101.887L215.953 102.649L218.125 105.206L219.071 105.546L220.791 105.527L222.307 105.893L225.635 108.635L227.856 112.609L228.091 115.011L227.466 116.522L226.841 119.561L227.583 123.307L227.46 124.378L227.014 125.059L224.818 125.653L224.478 126.142L224.849 127.43L225.505 128.092L229.848 128.692L231.073 130.395L232.062 131.045L233.918 131.441L234.568 131.262L234.24 133.713L232.786 136.313L232.953 136.765L234.679 137.848L236.244 139.526L236.015 139.705L235.885 141.501L235.545 142.386L234.729 143.352L233.374 143.804L232.198 144.67L230.881 147.747L230.745 149.425L231.586 151.17L232.05 153.349L230.571 154.569L230.361 155.25L230.472 156.469L230.039 161.304L230.367 162.604L230.107 163.267L228.926 164.226L228.678 166.133L227.59 166.925L227.72 169.86L227.07 170.726L227.132 171.444L229.149 174.713L230.738 176.62L231.796 177.369L232.415 178.663L232.489 180.774L231.456 183.213L230.782 183.566L229.142 187.038L227.095 190.381L226.587 190.827L225.591 191.087L224.063 191.007L223.692 189.83L220.389 186.172L218.032 186.023L217.104 185.249L216.281 185.113L215.483 185.72L214.933 186.896L212.359 189.837L210.905 190.827L210.194 190.957L209.365 190.363L209.117 189.552L209.148 183.547L208.511 182.55L205.901 181.04L205.703 179.028L203.89 177.375L203.209 177.134L202.585 177.35L201.564 178.663L200.982 180.235L199.553 181.535H198.873L197.79 180.879L196.961 181.034L195.452 179.925L194.877 179.839L193.949 180.216L193.516 179.727L193.144 178.564L192.68 178.495L191.851 179.127L191.121 179.616L190.54 179.424L189.631 177.499L188.969 177.233L188.313 177.567L187.193 179.449L186.494 179.975L185.554 179.449L183.574 179.251L179.788 179.641L179.027 179.381L177.505 179.752L178.359 177.195L176.262 175.474L176.318 174.038L176.664 173.463L178.18 172.664L178.668 172.125L179.04 170.398L180.951 168.436L180.592 167.272L178.737 166.269L179.25 164.4L177.011 163.558L176.311 163.081L176.206 162.518L176.386 162.121L176.93 161.861L178.928 161.608L179.318 160.673L179.256 158.76L178.687 156.358L178.588 153.226L178.384 152.6L177.536 152.186L169.575 152.235L165.448 150.694L164.391 149.666L163.753 148.44L164.316 147.673L165.659 146.831L166.661 145.791L167.187 144.875L169.81 143.265L170.441 142.157L170.632 140.931L168.634 139.848L165.646 138.82L166.481 136.257L166.512 134.666L165.288 132.314L164.292 132.042L162.9 132.456L162.04 132.37L161.867 129.584L161.57 128.395L161.192 128.08L158.266 127.77L157.536 128.513L157.951 129.992L157.555 130.599L155.099 130.252L150.379 132.023L149.735 130.376L149.104 129.757L147.304 129.838L146.005 130.215L144.483 131.144L141.025 133.93L137.697 138.269L136.824 138.82L135.94 138.449L135.185 136.27L133.298 135.032L133.162 134.183L133.366 132.753L134.505 131.639L134.356 129.281L134.814 128.042L134.727 127.126L133.836 125.653L134.084 122.688L135.964 119.357L137.004 119.283L137.796 118.812L139.565 116.237L142.825 113.321L146.314 112.733L151.226 113.086L154.14 112.702L155.581 111.768L157.462 109.848L158.396 107.849L158.792 105.651L159.85 103.54L160.376 102.835L162.077 101.739L163.524 100.265L164.149 100.284L166.877 100.829L168.078 100.717L168.919 101.275L169.408 102.352L169.265 103.014L167.477 104.679L167.236 105.496L171.164 106.691L173.794 109.347L174.876 109.489L176.54 108.548L177.394 107.366L176.274 105.286L176.2 104.023L178.334 103.348L179.541 103.416L181.254 104.097L182.12 104.042L182.479 103.707L182.473 102.847L183.215 101.008L185.108 99.405L185.968 99.2317L190.163 100.649L191.431 101.72L192.031 102.698L193.002 103.181L196.479 101.795L196.998 100.525L197.611 99.8445Z" fill="#1C4E63" stroke="white" stroke-width="2"/>
<path d="M57.936 27.6131L62.0313 27.5265L63.1819 27.9846L66.0462 27.0065L66.5164 27.1984L67.5371 28.5108L69.5105 29.6375L70.1663 30.3184L76.0804 32.2499L77.9053 33.5313L79.7983 33.9523L80.9242 33.6861L81.314 33.3394L82.8543 31.0551L83.572 30.8632L84.2401 31.408L84.4875 32.1818L83.4853 34.6147L83.541 36.1004L82.6626 37.9452L82.4027 40.2357L83.5534 41.5666L84.6669 44.2162L84.5556 46.2715L83.7514 50.0229L83.7761 51.2858L84.8154 54.703L84.6669 59.6678L84.271 60.6335L83.64 60.6583L81.679 59.3954L80.021 59.4078L77.5774 60.1383L76.7856 61.0545L76.1608 63.3945L76.0742 69.5479L76.5629 77.6266L75.2514 83.6871L73.6368 87.1724L72.9192 90.1253L74.4967 92.3849L74.9668 92.7006L76.6866 92.8801L77.7445 92.0444L79.2292 90.1872L86.6527 86.8134L87.6982 86.7391L88.8674 87.2715L90.1294 86.8257L90.6058 87.9091L91.1873 87.9524L92.1895 87.3519L92.7215 87.0548H93.8474L96.3899 88.4477L100.312 87.5439L100.819 86.1076L101.475 85.7238L101.964 85.631L102.527 86.0272L103.82 86.2191L106.053 85.8167L106.721 86.1696L107.767 88.2124L109.542 88.2805L111.8 89.7724L115.184 89.302L117.529 89.6115L119.069 89.2463L119.824 88.7448L122.824 89.1286L125.515 90.2244L126.387 91.5553L126.381 93.0844L125.113 97.1021V97.8449L128.441 99.5226L129.635 101.386L130.489 106.078L130.619 109.471L129.777 108.79L128.633 108.567L126.517 110.276L125.725 111.637L123.294 111.891L115.809 115.036L109.208 115.463L108.193 114.689L107.971 112.201L108.2 109.223L107.903 108.121L105.583 106.592L105.082 105.812L104.475 101.782L103.43 100.792L101.673 100.352L99.4212 100.327L93.3215 101.312L88.4529 102.445L85.7124 103.447L82.7121 105.051L81.8645 106.332L81.9635 107.286L82.5017 108.066L84.7473 109.31L88.088 110.666L91.4038 110.994L92.0534 112.238L93.1112 112.219L93.5937 112.677L94.2866 116.738L94.132 117.401L92.7833 118.299L92.3936 119.209L92.6967 120.106L94.3918 121.115L95.1156 121.957L95.0723 123.239L94.4475 124.161L92.0967 124.761L88.8674 126.396L85.7743 126.074L84.8154 126.334L84.2586 126.798L84.2339 132.735L83.9555 133.583L84.7288 135.335L85.8485 136.554L86.9992 138.43L87.4631 139.941L87.2899 140.888L86.1949 142.206L84.5618 143.178L82.4708 143.339L77.8806 144.887L77.5713 148.508L77.2248 148.806L74.5523 148.521L73.6739 147.908L73.6615 146.496L74.2987 144.466L74.4781 142.027L72.6655 140.38L71.9727 138.888L72.084 134.976L72.9872 132.958L74.1255 131.72L75.0411 131.094L77.4661 130.203L80.3242 127.461L81.8274 120.83L81.9512 118.323L81.6356 117.865L79.8478 117.209L78.8704 117.271L73.6739 113.742L70.4323 112.696L68.6135 112.739L65.8297 113.266L62.0004 113.043L54.4716 113.544L53.321 113.365L51.162 112.486L44.3323 108.722L42.5445 108.499L41.9939 108.821L41.1959 108.815L33.6919 102.451L36.3706 89.8282L37.6821 86.9124L40.7071 84.3248L40.1999 82.3066L38.7028 81.18L38.3502 78.1652L40.3112 75.788L38.8513 70.3651L39.0925 67.1336L39.8782 64.4717L39.3029 54.6597L45.9964 48.8839L50.7784 45.1386L56.674 36.088L57.9607 30.1265L57.936 27.6131Z" fill="#1C4E63" stroke="white" stroke-width="2"/>
<path d="M217.01 52.7282L219.182 56.6158L219.244 57.8292L219.906 58.5225L221.062 56.2877L221.446 54.6782L222.516 53.8425L224.984 52.6477L227.317 52.431L232.13 53.6815L232.408 57.3463L233.107 58.2006L235.464 59.513L236.145 61.4197L235.792 62.664L236.423 63.5245L236.936 63.7845L240.302 64.1312L241.446 64.4778L242.015 64.9793L242.51 66.7993L242.461 70.2722L241.731 71.1327L241.403 72.1974L242.424 72.6432V73.2808L243.599 72.5441L245.542 72.3894L245.894 73.2808L245.9 74.8718L246.748 75.0265L247.874 74.9151L249.309 74.036L250.218 72.9527L250.992 72.6246L252.402 77.0694L252.52 78.5923L251.864 79.7313L251.746 81.0004L249.668 83.9038L249.358 85.1976L249.482 86.4109L252.612 86.3181L253.287 86.9309L253.596 88.1691L254.512 89.8715L256.262 91.5058L257.555 91.8339L258.106 92.5458L253.701 96.8049L253.033 99.1078L253.083 100.494L249.668 101.838L248.963 101.782L248.257 101.12L247.212 101.305L245.678 102.277L245.263 102.958L242.331 105.54L240.691 108.084L238.996 110.071L237.734 110.387L236.064 110.288L235.433 110.554L234.443 113.383L234.165 115.55L234.412 119.815L234.691 121.047L237.079 123.728L237.555 124.761L237.605 125.999L236.782 128.383L235.179 130.915L234.567 131.261L233.917 131.441L232.062 131.045L231.072 130.395L229.847 128.692L225.504 128.092L224.848 127.43L224.477 126.142L224.817 125.653L227.014 125.059L227.459 124.378L227.583 123.307L226.84 119.561L227.465 116.522L228.09 115.011L227.855 112.609L225.634 108.635L222.306 105.893L220.79 105.527L219.07 105.546L218.124 105.205L215.953 102.649L213.633 101.887L211.449 100.754L210.806 100.024L210.478 98.433L211.783 95.9444L211.585 95.1706L210.886 94.6629L210.131 94.5453L207.607 95.313H206.586L203.617 97.0711L201.031 99.442L199.522 99.8568L197.61 99.8444L195.383 98.1854L194.696 96.7863L194.214 94.5515L195.154 92.8986L195.197 91.5305L196.323 90.5215L198.643 89.8838L200.159 88.8315L201.835 88.7881L202.423 88.4291L200.481 83.6004L200.895 81.0871L199.602 78.2518L200.134 74.3332L199.701 66.7064L199.868 64.9174L201.217 63.5059L203.846 62.0388L208.572 60.5654L210.849 59.3706L211.331 58.8444L212.03 56.1268L213.354 53.2729L214.146 52.951L217.01 52.7282Z" fill="#1C4E63" stroke="white" stroke-width="2"/>
<path d="M137.666 201.691L139.027 202.044L140.741 203.022L142.918 205.034L144.632 207.708L146.209 212.816L148.504 214.24L150.181 215.905L153.565 220.405L155.247 221.978L156.256 222.132L156.46 221.916L156.844 220.127L157.611 218.561L157.728 218.4L158.341 218.944L158.625 218.889L158.662 217.05L160.871 215.973L161.564 213.961L166.179 214.054L167.045 213.769L166.674 215.403L165.715 217.05V217.582L166.222 218.629L167.577 220.275L167.911 224.095L167.187 227.011L167.162 229.914L166.166 230.948L165.64 232.26L165.535 234.575L165.962 234.922L168.597 233.096L174.326 230.576L181.997 228.49L186.371 228.057L188.585 228.478L193.349 228.831L193.151 230.589L193.485 234.223L194.648 236.216L196.318 237.832L196.77 238.977L196.776 243.248L197.129 247.464L197.896 250.888L198.681 251.538L200.729 251.339L201.645 251.63L201.422 252.751L200.661 253.5L200.37 254.299L200.11 256.731L198.91 260.341L196.869 262.266L192.885 264.197L192.291 265.089L192.081 267.825H190.992L190.157 267.175L189.649 267.237L187.565 265.2L187.045 264.841L186.791 265.151L186.105 264.148L184.595 263.683L182.548 264.154L181.224 265.454L179.714 266.017L175.891 270.611L172.192 273L169.117 276.337L168.35 276.541L167.923 276.331L167.1 275.086L166.643 275.055L166.531 273.644L165.968 273.489L164.279 276.591L163.45 277.748L162.498 278.281L161.112 279.711L160.345 282.261L160.308 283.951L159.17 285.505L158.285 286.056L156.064 285.647L155.031 286.124L154.394 282.391L153.521 281.147L152.971 279.537L153.546 276.12L152.754 274.789L154.091 272.592L155.272 269.608L155.235 267.033L156.237 264.593L156.429 263.405L156.336 261.294L155.848 260.05L154.95 259.381L154.61 258.069L153.528 257.196L152.371 257.45L151.468 258.062L151.202 257.827L148.882 258.347L148.473 257.338L148.622 257.022L148.164 256.676L147.867 255.599L147.341 255.221L147.298 254.466L146.642 253.221L145.059 253.129L144.601 253.444L143.203 253.562L141.99 252.181L141.65 252.219L140.87 251.346L140.468 251.389L139.503 250.089L135.829 251.903L134.511 251.575L133.843 251.092L133.67 250.442L133.812 249.247L134.406 248.102L134.239 247.607L132.89 247.761L132.606 247.359L132.841 246.808L132.667 246.387L132.234 246.164L131.152 246.393L130.675 245.997L130.533 245.514L127.601 242.933L126.339 241.261L126.778 238.698L125.225 238.432L122.367 238.977L118.148 237.497L117.004 236.451L116.212 236.433L115.395 235.838L114.579 233.517L114.628 232.551L116.045 230.688L116.874 230.292L117.047 229.443L116.701 229.01L115.272 228.843L113.001 229.239L111.467 230.118L111.127 229.84L111.145 227.19L111.82 226.93L112.284 226.039L111.776 224.547L108.832 222.95L108.751 222.584L107.254 221.464L107.211 221.049L105.72 219.532L104.532 217.242L104.637 216.629L105.961 215.125L107.378 212.704L109.673 210.203L111.9 208.786L112.995 210.408L114.337 211.497L118.693 213.36L119.831 213.41L121.538 214.079L123.833 213.949L125.151 214.376L127.576 214.301L131.474 215.242L133.348 214.933L134.319 212.605L134.715 208.588L136.144 203.765L137.666 201.691Z" fill="#1C4E63" stroke="white" stroke-width="2"/>
<path d="M201.39 22.9207L207.057 23.7564L210.268 24.6107L212.482 25.8117L214.289 27.3593L215.978 27.8112L222.096 33.7789L224.131 33.2342L225.937 33.4694L227.812 34.4289L229.229 35.5123L230.373 36.8185L231.016 38.329L232.848 39.1771L236.102 39.9633L243.593 42.39L243.587 42.9224L242.35 43.4671L241.991 43.9314L241.354 45.5595L239.38 47.1567L236.794 48.2338L234.518 48.5743L233.596 48.141L233.2 47.1753L231.579 48.11L230.348 47.7881L228.703 46.7543L228.282 46.1724L227.41 43.2752L226.686 42.5138L220.982 42.9966L217.66 42.3838L211.233 43.2381L210.948 43.4238L210.96 45.0891L210.497 47.1938L210.54 49.5772L210.905 50.0229L212.674 50.5986L215.73 50.6729L216.244 51.1063L217.011 52.7282L214.146 52.951L213.355 53.273L212.031 56.1268L211.332 58.8444L210.849 59.3706L208.573 60.5654L203.846 62.0388L201.217 63.5059L199.868 64.9174L199.701 66.7064L200.134 74.3332L199.602 78.2518L200.895 81.0871L200.481 83.6004L202.423 88.4291L201.836 88.7881L200.159 88.8315L198.644 89.8839L196.324 90.5215L195.198 91.5305L195.155 92.8986L194.214 94.5515L194.697 96.7863L195.383 98.1854L197.61 99.8444L196.998 100.525L196.478 101.794L193.002 103.181L192.03 102.698L191.43 101.72L190.162 100.649L185.968 99.2316L185.108 99.4049L183.215 101.008L182.473 102.847L182.479 103.707L182.12 104.042L181.254 104.097L179.54 103.416L178.334 103.348L176.2 104.023L176.274 105.286L177.394 107.366L176.54 108.548L174.876 109.489L173.793 109.347L171.164 106.691L167.236 105.496L167.477 104.679L169.265 103.014L169.407 102.352L168.918 101.274L168.077 100.717L166.877 100.829L164.149 100.284L164.161 98.8416L164.934 95.0653L164.378 92.781L163.196 91.6048L163.097 90.9424L163.376 88.6148L164.341 86.0519L164.743 83.5757L165.671 83.0557L169.76 82.9752L170.552 83.5138L173.571 81.0561L173.911 79.0752L175.977 79.5766L177.146 78.5737L176.837 77.3666L176.119 76.4813L174.461 75.0637L172.896 74.3456L172.117 73.5965L173.243 71.3493L173.917 68.155L173.329 66.626L173.41 65.586L172.983 63.6978L171.436 60.4788L171.684 58.2687L170.873 56.2816L170.632 53.3411L170.013 50.1405L170.057 46.3953L169.444 42.5757L170.335 35.8775L173.342 34.9056L176.608 31.5875L181.99 32.0703L184.205 31.6122L198.681 22.8526L199.473 22.6483L201.39 22.9207Z" fill="#1C4E63" stroke="white" stroke-width="2"/>
<path d="M40.361 147.487L43.6892 146.917L50.6921 146.701L52.9315 147.276L61.58 157.095L62.8111 159.014L66.2816 163.025L67.6982 164.003L68.7499 163.892L69.3933 164.189L69.5603 166.009L69.1087 168.888L69.1458 172.218L69.6902 174.496L70.4944 174.738L75.1774 174.249L75.6971 174.707L75.9631 175.71L75.8456 177.833L76.0621 178.7L76.4704 179.331L78.4562 180.823L80.3368 181.064L80.9987 181.405L81.5555 182.711L82.0133 186.085L83.1825 186.902L84.4198 186.896L90.0864 184.692L91.5773 184.593L95.5056 186.456L96.384 187.137L100.312 191.613L101.704 192.04L104.154 191.322L106.95 191.824L109.258 192.82L109.654 192.653L116.935 197.185L120.146 199.457L120.721 200.379L121.624 200.818L122.762 201.19L125.806 201.388L127.903 200.825L132.555 200.633L137.665 201.691L136.143 203.765L134.714 208.588L134.318 212.605L133.347 214.933L131.473 215.242L127.575 214.301L125.15 214.376L123.833 213.949L121.537 214.079L119.83 213.41L118.692 213.36L114.337 211.497L112.994 210.408L111.899 208.786L109.672 210.203L107.377 212.704L105.96 215.125L104.637 216.629L104.531 217.242L105.719 219.532L107.21 221.049L107.253 221.464L108.75 222.584L108.831 222.95L111.776 224.547L112.283 226.039L111.819 226.93L108.256 226.986L105.713 227.815L105.206 229.19L105.385 229.58L104.742 230.917L103.944 230.576L102.737 230.935L101.315 230.552L99.8731 230.694L99.2854 230.391L98.376 229.115L97.7883 228.886L95.0169 229.66L94.3797 229.357L94.0023 228.323L93.7487 228.428L93.5074 228.094L92.4743 228.589L90.3153 228.67L89.3997 226.707L88.0511 226.348L85.1188 227.401L83.4794 227.165L83.5289 227.71L83.4176 227.184L83.1949 227.24L80.9987 228.236L79.3903 228.428L74.2742 228.292L73.9711 227.884L73.0741 227.84L72.6349 227.258L71.4595 224.281L71.2182 222.566L70.7357 222.157L70.7171 221.662L68.5767 220.269L66.7517 217.644L65.997 215.515L65.9413 214.215L65.4526 212.5L64.2339 210.872L62.378 206.47L61.3511 205.288L60.5345 202.013L60.0334 201.035L60.6706 198.249L61.9573 197.29L62.1739 196.299L62.5265 195.934L64.4813 194.64L65.9289 192.684L65.83 191.879L65.0196 191.396L63.2688 192.511L61.9017 192.56L59.5323 191.892L58.8518 191.972L57.3671 191.019L53.8409 189.942L51.8304 188.444L50.7849 187.181L50.4508 185.645L47.9268 184.123L46.6648 184.178L44.3017 185.466L43.2562 187.763L43.2438 189.403L42.9654 190.09L40.2311 192.214L36.1234 194.021L32.5415 196.064L31.0011 197.265L30.3021 197.426L28.44 198.794L24.1096 200.812L23.5343 200.905L23.2064 200.441L22.928 200.509L22.3651 199.809L21.9382 199.692L20.3483 199.859L16.0612 203.282L15.0343 203.691L12.6155 205.82L12.4979 206.433L11.57 206.922L9.04599 207.368L7.08494 207.38L5.11151 209.101L5.45794 207.999L5.09295 207.158L5.08677 204.966L4.64754 204.409L4.79601 203.518L5.13626 202.657L4.89499 200.979L4.29492 199.871L4.75271 199.005L5.63735 198.441L5.3899 196.374L5.81675 196.231L6.02708 195.166L5.90336 194.783L5.91573 194.238L6.34258 193.223L6.60859 192.257L6.35496 191.786L6.18793 191.31L5.97141 190.827L6.05183 190.103L6.20649 189.032L6.30547 188.604L9.6275 188.716L10.0667 188.617L10.7163 187.886L12.9124 187.54L13.3207 188.047L14.0878 188.326L15.0096 188.264L18.0718 187.193L18.2264 186.104L19.4328 183.702L19.5379 181.386L20.7195 180.222L20.5092 176.62L19.7173 174.137L19.9091 173.258L20.6267 172.094L22.1547 171.24L22.662 170.107L24.2643 167.866L24.7901 165.947L25.4335 165.582L26.7573 165.737L28.0503 164.666L28.1121 163.91L27.2832 162.326L27.0852 161.131L27.3141 160.301L28.0008 159.546L32.1765 157.875L34.2737 158.023L34.9789 157.837L36.2286 156.562L36.3028 155.757L37.7628 154.154L38.1154 152.662L38.27 149.585L38.7959 148.905L40.0826 148.372L40.361 147.487Z" fill="#1C4E63" stroke="white" stroke-width="2"/>
<path d="M3.89317 288.192L4.66645 288.44L6.77598 288.173L7.97612 288.724L10.1166 287.214V286.217L10.3702 286.149L12.5663 286.477L21.0477 286.36L21.7035 285.734L22.1798 283.289L23.4666 282.268L23.5223 280.813L24.3636 279.259L25.5081 279.414L27.6176 280.299L28.3599 280.794L28.861 281.68L31.6882 281.382L31.3727 280.485L32.3563 279.829L55.6044 280.07L56.2663 280.2L56.6004 280.757L54.9115 282.54L54.7692 283.122L55.2208 283.89L55.2456 284.793L56.6004 285.468L58.5923 284.131L60.7266 283.877L61.3824 284.793L61.4566 285.381L60.7637 286.038L59.0316 286.849L58.6851 287.486L58.8212 287.92L59.3904 288.378L61.104 288.854L61.803 289.665L62.1618 289.752L62.8547 289.393L66.1149 289.795L66.3314 290.569L66.1087 292.03L60.2131 291.318L58.8583 290.903L51.4224 289.764L46.1084 289.48L39.9778 290.062L30.6303 290.161L30.2777 290.353L30.1602 291.17L29.8323 291.108L29.9807 291.318L26.6278 290.811L22.9036 290.817L9.54125 291.269L3.67046 291.95L3.44775 290.024L3.89317 288.192Z" fill="#1C4E63" stroke="white" stroke-width="2"/>
<path d="M191.851 179.127L192.68 178.495L193.144 178.564L193.515 179.727L193.948 180.216L194.876 179.839L195.451 179.925L196.961 181.034L197.789 180.879L198.872 181.535H199.553L200.982 180.235L201.563 178.663L202.584 177.35L203.209 177.134L203.889 177.375L205.702 179.028L205.9 181.04L208.51 182.55L209.148 183.547L209.117 189.552L209.364 190.363L210.193 190.957L210.904 190.827L212.358 189.837L214.932 186.896L215.482 185.72L216.28 185.113L217.103 185.249L218.031 186.023L220.388 186.172L223.691 189.83L224.063 191.007L225.591 191.087L226.587 190.827L227.094 190.381L229.142 187.038L230.781 183.566L231.455 183.213L232.501 184.234L233.998 184.302L235.285 184.828L235.674 187.602L236.868 189.713L238.205 190.319L241.496 190.666H243.785L245.498 189.83L246.142 190.177L247.385 191.545L246.896 193.359L245.226 195.841L243.921 197.067L243.048 197.191L242.145 197.841L241.186 199.611L240.227 200.453L240.029 201.846L240.425 202.911L241.718 204.415L241.916 205.183L241.731 208.532L242.622 209.813L245.807 211.491L248.072 212.296L253.138 212.203L259.176 210.476L265.585 213.156L267.144 214.438L268.047 216.097L266.451 218.375L264.756 218.883L261.966 218.295L261.762 218.041L260.822 218.183L260.203 217.521L259.133 216.964H257.982L257.19 217.496L256.367 218.821L255.916 220.591L256.974 221.433L258.23 222.987L258.446 224.77L258.112 225.172L258.731 226.831L258.663 227.568L251.715 232.031L250.967 232.892L243.673 227.364L243.667 227.797L241.217 227.933L238.198 227.679L233.955 226.72L227.713 224.417L226.055 224.145L224.452 224.256L223.599 224.429L221.155 225.791L220.388 226.664L219.757 228.435L219.806 229.995L222.714 237.2L222.658 238.042L221.953 238.723L218.656 237.343L216.602 235.609L215.94 235.696L212.692 235.083L209.649 233.338L204.26 231.14L198.996 230.366L193.348 228.831L188.584 228.478L186.37 228.057L181.996 228.49L174.325 230.577L168.596 233.096L165.961 234.922L165.534 234.576L165.639 232.26L166.165 230.948L167.161 229.914L167.186 227.011L167.91 224.095L167.576 220.275L166.221 218.629L165.714 217.583V217.05L166.672 215.404L167.044 213.769L173.929 212.686L175.729 211.943L178.593 211.287L182.899 209.033L185.238 206.173L185.881 205.158L186.549 203.053L187.038 202.831L187.978 197.909L189.203 194.647L189.543 190.313L189.228 188.957L189.277 185.478L190.582 181.442L190.91 181.065L191.548 181.021L191.807 180.637L191.851 179.127Z" fill="#1C4E63" stroke="white" stroke-width="2"/>
<path d="M41.9941 108.821L42.5447 108.499L44.3325 108.722L51.1622 112.486L53.3212 113.365L54.4719 113.544L62.0006 113.043L65.8299 113.266L68.6137 112.739L70.4325 112.696L73.6741 113.742L78.8706 117.271L79.848 117.209L81.6359 117.865L81.9514 118.323L81.8276 120.83L80.3244 127.461L77.4663 130.203L75.0413 131.094L74.1257 131.72L72.9874 132.958L72.0842 134.976L71.9729 138.888L72.6657 140.38L74.4783 142.027L74.2989 144.466L73.6617 146.496L73.6741 147.908L74.5526 148.521L77.225 148.806L77.5715 148.508L77.8808 144.887L82.471 143.339L84.562 143.178L86.1952 142.206L87.2901 140.888L87.4633 139.941L86.9994 138.43L85.8487 136.554L84.729 135.335L83.9557 133.583L84.2341 132.735L84.2588 126.798L84.8156 126.334L85.7745 126.074L88.8676 126.396L92.0969 124.761L94.4477 124.161L95.0725 123.239L95.1158 121.957L94.392 121.115L92.6969 120.106L92.3938 119.209L92.7835 118.299L94.1322 117.401L94.2868 116.739L93.594 112.678L93.1114 112.219L92.0536 112.238L91.404 110.994L88.0882 110.666L84.7476 109.31L82.5019 108.066L81.9637 107.286L81.8647 106.332L82.7123 105.051L85.7126 103.447L88.4531 102.445L93.3218 101.312L99.4214 100.327L101.673 100.352L103.43 100.792L104.476 101.782L105.082 105.812L105.583 106.592L107.903 108.121L108.2 109.223L107.971 112.201L108.194 114.689L109.208 115.463L115.809 115.036L123.294 111.891L125.726 111.638L126.517 110.276L128.633 108.567L129.778 108.79L130.619 109.471L132.673 112.195L135.024 116.305L136.007 118.837L135.964 119.357L134.083 122.688L133.836 125.653L134.727 127.126L134.813 128.042L134.355 129.281L134.504 131.639L133.366 132.753L133.161 134.183L133.298 135.032L135.184 136.27L135.939 138.449L136.824 138.82L137.696 138.269L141.024 133.93L144.482 131.144L146.004 130.215L147.303 129.838L149.104 129.757L149.735 130.376L150.378 132.023L155.098 130.252L157.554 130.599L157.95 129.992L157.535 128.513L158.265 127.77L161.192 128.08L161.569 128.395L161.866 129.584L162.039 132.37L162.899 132.456L164.291 132.042L165.287 132.314L166.512 134.666L166.481 136.257L165.646 138.82L168.634 139.848L170.632 140.931L170.44 142.157L169.809 143.265L167.186 144.875L166.66 145.791L165.658 146.831L164.316 147.673L163.753 148.44L164.39 149.666L165.448 150.694L169.574 152.235L177.536 152.186L178.383 152.6L178.587 153.226L178.686 156.358L179.256 158.76L179.317 160.673L178.928 161.608L176.929 161.861L176.385 162.121L176.206 162.518L176.311 163.081L177.01 163.558L179.249 164.4L178.736 166.269L180.592 167.272L180.951 168.436L179.039 170.398L178.668 172.125L178.179 172.664L176.663 173.463L176.317 174.038L176.261 175.474L178.358 177.195L177.505 179.752L179.027 179.381L179.788 179.641L174.436 187.28L173.855 187.428L168.17 182.414L167.081 182.024L160.257 182.315L158.599 182.519L158.389 182.755L158.166 191.211L158.63 209.912L158.346 210.761L159.552 213.8L160.431 214.091L161.563 213.961L160.87 215.973L158.661 217.05L158.624 218.889L158.34 218.944L157.727 218.4L157.61 218.561L156.843 220.127L156.459 221.916L156.255 222.133L155.247 221.978L153.564 220.405L150.18 215.905L148.503 214.24L146.208 212.816L144.631 207.709L142.917 205.034L140.74 203.022L139.026 202.044L137.665 201.691L132.555 200.633L127.903 200.825L125.806 201.388L122.762 201.19L121.624 200.819L120.721 200.379L120.146 199.457L116.935 197.185L109.654 192.653L109.258 192.82L106.95 191.824L104.154 191.322L101.704 192.04L100.312 191.613L96.384 187.137L95.5055 186.456L91.5772 184.593L90.0863 184.692L84.4197 186.896L83.1824 186.902L82.0132 186.085L81.5554 182.711L80.9987 181.405L80.3367 181.065L78.4561 180.823L76.4703 179.331L76.062 178.7L75.8455 177.833L75.963 175.71L75.697 174.707L75.1774 174.249L70.4943 174.738L69.6901 174.496L69.1457 172.218L69.1086 168.888L69.5602 166.009L69.3932 164.189L68.7498 163.892L67.6981 164.003L66.2815 163.025L62.811 159.014L61.5799 157.095L52.9315 147.277L50.692 146.701L43.6892 146.917L40.3609 147.487L40.6641 145.617L39.4515 145.184L38.1524 143.934L37.0698 141.742L38.9752 137.427L38.8886 136.381L39.4392 135.675L41.0352 134.852L44.7965 136.827L45.4151 134.895L45.5698 133.044L47.3143 129.064L46.906 125.226L45.2419 124.05L43.4046 120.583L44.1531 117.735L44.2335 116.472L43.4726 113.346L42.155 112.838L42.4148 111.631L42.2416 110.424L42.5571 109.217L41.9941 108.821Z" fill="#1C4E63" stroke="white" stroke-width="2"/>
<path d="M2.37736 233.554L6.07058 230.898L8.22959 230.768L9.40499 231.344L10.1721 232.452L10.4257 233.337L10.5185 237.349L10.865 238.81L11.6754 240.153L12.195 240.234L12.7765 236.792L13.1291 236.018L13.4199 235.739H14.2674L14.8118 236.117L15.1459 237.2L15.0469 239.113L13.9705 242.815L13.7168 242.667L13.4013 243.019L13.723 245.285L15.0345 246.839L16.9213 248.368L17.5523 250.25L19.5319 253.042L21.394 254.503L22.8416 255.202L25.3471 255.376L26.4235 255.072L28.1433 252.615L28.8485 249.99L29.8507 249.074L31.4591 249.253L32.5417 251.94L33.5253 252.64L34.1563 252.479L34.8554 251.791L36.3834 251.42L40.2189 251.556L40.9427 252.726L41.1468 256.23L41.4005 256.67L43.244 257.425L43.6399 258.106L43.5781 259.48L44.2586 261.152L44.5122 262.928L42.0562 265.411L41.8521 266.11L42.081 266.283L45.8484 266.129L47.5187 265.77L49.3994 265.85L51.3666 265.083L52.3007 264.234L55.9445 263.69L57.6395 263.021L58.5056 262.334L59.0871 262.575L59.4088 263.095L59.7738 265.745L60.9925 265.739L63.3742 264.513L65.4713 264.878L67.3087 269.28L69.2017 268.066L69.8822 268.054L70.5936 268.481L71.9051 267.912L74.4786 267.751L74.6704 267.831L74.4848 268.456L74.0208 271.861L73.3651 273.879L71.9113 275.179L70.6369 275.78L68.3913 277.81L66.5478 280.856L66.5663 282.967L67.8098 284.187L70.7854 284.688L71.9175 284.608L72.7959 283.951L73.8167 282.546L74.9054 282.23L75.3075 282.713L75.2952 285.48L75.821 287.69L75.3756 288.811L73.8661 289.219L73.3898 289.925L72.6969 290.346L71.2122 290.414L70.3956 291.244L71.0019 291.51L72.7279 291.355L74.7693 292.432L74.8993 293.101L74.392 294.166L71.9113 293.992L68.8181 292.606L66.1085 292.03L66.3312 290.569L66.1147 289.795L62.8545 289.393L62.1617 289.752L61.8029 289.665L61.1038 288.854L59.3902 288.378L58.8211 287.919L58.685 287.486L59.0314 286.848L60.7636 286.038L61.4564 285.381L61.3822 284.793L60.7265 283.877L58.5922 284.131L56.6002 285.468L55.2454 284.793L55.2207 283.889L54.7691 283.122L54.9113 282.54L56.6002 280.757L56.2661 280.2L55.6042 280.07L32.3561 279.828L31.3725 280.485L31.688 281.382L28.8609 281.679L28.3598 280.794L27.6174 280.299L25.5079 279.414L24.3634 279.259L23.5221 280.813L23.4664 282.267L22.1797 283.289L21.7033 285.734L21.0476 286.359L12.5662 286.477L10.3701 286.149L10.1164 286.217V287.214L7.97596 288.724L6.77582 288.173L4.66629 288.439L3.89301 288.192L4.15283 286.161L4.85188 285.431L5.24162 284.478L4.41265 282.162L5.21687 280.825L6.52218 279.711L6.6459 278.015L6.51599 277.42L5.19213 277.247L4.7096 277.006L4.45596 276.473L4.35079 275.346L5.09315 274.17L4.88281 273.508L5.17975 271.366L5.04366 270.759L4.23944 270.673L3.90538 270.295L3.99817 268.524L4.86425 267.528L6.75726 266.426L5.23543 265.045L4.93849 264.451L6.09532 263.089L6.46032 261.901L6.05202 259.016L5.10552 257.988L5.03128 251.99L6.49743 251.94L7.00471 251.643L7.02945 251.197L6.76963 249.03L5.1117 247.768L4.97561 246.678L4.36935 245.737L4.18376 243.137L4.33842 237.59L4.15283 237.002L3.64555 236.786L3.04548 235.188L2 233.845L2.37736 233.554Z" fill="#1C4E63" stroke="white" stroke-width="2"/>
<path d="M122.367 238.977L125.225 238.432L126.778 238.698L126.339 241.261L127.601 242.933L130.533 245.514L130.675 245.997L129.16 248.158L128.603 248.529L127.638 248.442L126.766 249.507L126.654 250.361L126.902 250.881L128.151 251.389L127.607 253.178L128.083 254.72L128.343 254.893L127.458 257.084L126.128 257.734L125.04 258.867L124.749 259.511L124.842 260.372L122.843 264.637L123.041 265.151L122.812 265.677L121.878 266.129L121.111 267.163L120.728 270.029L121.458 270.821L121.557 271.329L121.012 271.645L121.006 272.654L120.27 272.338L120.115 272.493L119.528 275.563L118.593 277.662L116.936 278.299L116.434 278.077L115.698 277.16L114.869 277.086L112.537 279.042L112.079 279.061L110.78 275.681L112.024 274.288L110.947 272.994L109.933 272.784L107.897 273.025L103.79 272.957L102.75 272.734L101.34 272.969L100.028 272.728L98.6674 273.353L98.3828 273.836L98.3271 275.049L97.7394 275.47L97.2507 276.876L96.1805 277.371L95.9021 278.015L94.8133 279.011L94.5102 279.606L94.5659 280.98L94.071 281.593V283.351L94.8319 283.747L95.6918 285.158L96.0506 286.056L95.8279 287.121L95.3144 288.334L94.238 289.393L93.7122 291.708L91.8934 292.24L91.5346 292.624L90.9407 294.865L90.4458 295.299L90.619 295.026L90.4644 295.398L90.7366 295.961L91.1696 295.992L92.3697 296.834L93.3905 298.654L94.3555 298.716L95.1783 299.36L95.9454 300.759L95.7042 301.477L91.4356 311.84L88.4291 308.163L82.7562 302.443L73.5882 295.039L71.9179 294.011L74.3924 294.184L74.9059 293.113L74.7759 292.451L72.7345 291.374L71.0085 291.529L70.4022 291.262L71.2188 290.427L72.7035 290.365L73.3902 289.944L73.8727 289.238L75.3822 288.829L75.8276 287.703L75.308 285.493L75.3141 282.726L74.9182 282.243L73.8232 282.558L72.8025 283.964L71.9241 284.62L70.792 284.7L67.8226 284.199L66.5791 282.986L66.5605 280.875L68.4041 277.829L70.6497 275.798L71.9241 275.204L73.3778 273.904L74.0398 271.892L74.4976 268.481L76.1493 267.602L77.4793 264.525L80.1333 262.396L81.5685 262.383L83.1212 263.151L84.9214 264.525L86.0412 264.544L86.4371 263.764L86.2948 262.755L86.5484 261.449L86.2639 258.985L87.2289 254.936L87.7486 254.583L91.3738 253.599L90.9902 252.113L93.805 251.216L98.6179 251.482L102.93 251.29L103.889 251.618L104.767 252.986L105.404 254.961L105.305 255.493L105.98 257.159L107.39 257.524L110.811 255.357L112.692 252.615L113.75 250.188L114.801 245.174L115.5 243.849L116.985 242.314L118.334 241.416L118.859 240.141L120.01 239.906L120.938 240.673L121.445 240.487L122.367 238.977Z" fill="#1C4E63" stroke="white" stroke-width="2"/>
<path d="M74.2752 228.292L79.3913 228.428L80.9997 228.236L83.1959 227.24L83.4186 227.184L83.5299 227.71L83.4804 227.165L85.1198 227.401L88.0521 226.348L89.4007 226.707L90.3163 228.67L92.4753 228.589L93.5084 228.094L93.7497 228.428L92.8093 231.709L91.5783 232.725L90.2297 233.306L89.2275 234.235L88.0521 236.866L87.9779 237.733L88.4789 239.472L87.7428 241.942L88.1696 244.901L89.9327 248.684L90.4524 251.03L90.9658 252.082L91.3494 253.574L87.7242 254.552L87.2046 254.911L86.2395 258.96L86.5241 261.424L86.2766 262.73L86.4189 263.739L86.023 264.519L84.9033 264.501L83.1031 263.126L81.5503 262.359L80.1151 262.365L77.4673 264.501L76.1373 267.571L74.4856 268.456L74.6711 267.831L74.4794 267.751L71.9059 267.912L70.5944 268.481L69.883 268.054L69.2025 268.066L67.3095 269.28L65.4721 264.878L63.375 264.513L60.9933 265.739L59.7746 265.745L59.4096 263.095L59.0879 262.575L58.5064 262.334L57.6403 263.021L55.9452 263.69L57.3928 257.598L57.6588 254.323L58.692 248.925L58.1537 248.622L56.2669 245.601L54.343 244.158L54.176 243.583L54.0894 243.038L54.8008 242.363L55.2833 241.274L55.8215 235.535L56.1927 235.362L58.8528 236.191L60.288 235.727L60.7706 235.114L60.851 233.69L61.5067 233.337L63.2451 231.282L65.1071 232.421L67.328 235.863L68.6457 235.287L69.0478 234.402L70.316 233.684L70.9223 232.824L71.0955 233.065L72.2276 232.13L73.6442 231.66L73.7989 231.895L74.4113 231.065L74.6031 230.273L74.2752 228.292Z" fill="#1C4E63" stroke="white" stroke-width="2"/>
<path d="M5.11227 209.101L7.0857 207.38L9.04675 207.368L11.5708 206.922L12.4987 206.433L12.6162 205.82L15.0351 203.691L16.062 203.282L20.3491 199.859L21.939 199.692L22.3658 199.809L22.9288 200.509L23.2072 200.441L23.535 200.905L24.1104 200.812L28.4408 198.794L30.3028 197.426L31.0019 197.265L32.5423 196.064L36.1241 194.021L40.2318 192.214L42.9662 190.09L43.2446 189.403L43.2569 187.763L44.3024 185.466L46.6656 184.178L47.9276 184.123L50.4516 185.645L50.7857 187.181L51.8311 188.444L53.8417 189.942L57.3679 191.019L58.8526 191.972L59.5331 191.892L61.9024 192.56L63.2696 192.511L65.0203 191.396L65.8307 191.879L65.9297 192.684L64.4821 194.64L62.5272 195.934L62.1746 196.299L61.9581 197.29L60.6713 198.249L60.0342 201.035L60.5352 202.013L61.3518 205.288L62.3788 206.47L64.2346 210.872L65.4533 212.5L65.9421 214.215L65.9977 215.515L66.7525 217.644L68.5774 220.269L70.7179 221.662L70.7364 222.157L71.219 222.566L71.4602 224.281L72.6356 227.258L73.0749 227.84L73.9719 227.884L74.275 228.292L74.6029 230.273L74.4111 231.065L73.7987 231.895L73.644 231.66L72.2273 232.13L71.0952 233.065L70.922 232.824L70.3158 233.684L69.0476 234.402L68.6455 235.287L67.3278 235.863L65.1069 232.421L63.2448 231.282L61.5065 233.337L60.8507 233.69L60.7703 235.114L60.2878 235.727L58.8526 236.191L56.1925 235.362L55.8213 235.535L55.2831 241.274L54.8006 242.363L54.0891 243.038L54.1757 243.583L54.3428 244.158L56.2667 245.601L58.1535 248.622L58.6917 248.925L57.6586 254.323L57.3926 257.598L55.945 263.69L52.3013 264.234L51.3672 265.083L49.3999 265.85L47.5193 265.77L45.849 266.129L42.0815 266.284L41.8526 266.11L42.0568 265.411L44.5128 262.928L44.2591 261.152L43.5786 259.48L43.6405 258.106L43.2446 257.425L41.401 256.67L41.1474 256.23L40.9433 252.726L40.2195 251.556L36.384 251.42L34.856 251.791L34.1569 252.479L33.5259 252.64L32.5423 251.94L31.4597 249.253L29.8512 249.074L28.8491 249.99L28.1438 252.615L26.424 255.072L25.3476 255.376L22.8422 255.202L21.3946 254.503L19.5325 253.042L17.5529 250.25L16.9219 248.368L15.0351 246.839L13.7236 245.285L13.4019 243.019L13.7174 242.667L13.971 242.815L15.0475 239.113L15.1464 237.2L14.8124 236.117L14.268 235.739H13.4205L13.1297 236.018L12.7771 236.792L12.1956 240.234L11.6759 240.153L10.8655 238.81L10.5191 237.349L10.4263 233.337L10.1727 232.452L9.40556 231.344L8.23016 230.768L6.07114 230.898L2.37793 233.554L3.03986 232.266L3.49146 229.605L4.31424 227.035L4.12865 226.342L4.35754 224.671L5.05659 223.272L5.2793 221.483L3.76985 219.588L3.04605 217.118L3.09554 215.868L3.7451 214.71L3.4729 213.441L3.76985 213.008L4.54313 212.822L5.39065 211.039L5.12464 210.767L5.57624 210.166L5.58243 209.504L5.11227 209.101Z" fill="#1C4E63" stroke="white" stroke-width="2"/>
<path d="M236.244 139.526L237.191 139.223L239.158 139.272L240.878 139.817L242.492 142.392L242.975 145.364L242.95 153.027L249.736 151.672L250.392 151.802L251.506 152.99L252.106 154.928L252.267 158.605L252.124 159.329L250.652 162.097L250.596 163.143L250.967 163.669L253.392 164.548L253.881 164.988L254.438 165.706L255.459 168.225L256.424 169.055L257.358 169.383L260.327 169.55L263.711 170.466L269.922 170.101L272.638 169.228L274.426 166.003L277.371 165.198L277.68 164.164L277.513 163.087L275.552 160.574L275.737 159.682L277.612 158.58L282.313 161.026L283.903 161.341L289.632 164.393L296.48 167.328L300.303 169.829L304.238 171.952L305.203 174.391L305.333 175.722L305.017 178.248L305.487 181.937L306.91 184.327L307.56 188.054L307.219 188.877L307.405 190.27H307.671L307.801 193.699L306.7 195.606L299.165 199.234L297.989 199.166L292.1 200.466L290.56 201.357L289.285 203.951L286.353 207.492L281.955 209.82L277.204 214.555L275.7 215.292L272.972 215.917L270.43 216.252L268.048 216.097L267.145 214.438L265.586 213.156L259.177 210.476L253.139 212.203L248.072 212.296L245.808 211.491L242.622 209.813L241.731 208.532L241.917 205.183L241.719 204.415L240.426 202.911L240.03 201.846L240.228 200.453L241.187 199.611L242.146 197.841L243.049 197.191L243.921 197.067L245.227 195.841L246.897 193.359L247.386 191.545L246.142 190.177L245.499 189.83L243.785 190.666H241.496L238.205 190.319L236.869 189.713L235.675 187.602L235.285 184.828L233.998 184.302L232.501 184.234L231.456 183.213L232.489 180.773L232.415 178.663L231.796 177.369L230.738 176.62L229.148 174.713L227.132 171.444L227.07 170.726L227.719 169.86L227.589 166.925L228.678 166.133L228.926 164.226L230.107 163.267L230.367 162.604L230.039 161.304L230.472 156.469L230.361 155.25L230.571 154.569L232.05 153.349L231.586 151.17L230.744 149.425L230.881 147.747L232.198 144.67L233.374 143.804L234.728 143.352L235.545 142.386L235.885 141.501L236.015 139.705L236.244 139.526Z" fill="#1C4E63" stroke="white" stroke-width="2"/>
<path d="M173.589 363.048L172.686 363.908L172.698 364.385L172.315 364.237L172.451 363.358L173.342 362.85L173.589 363.048ZM171.647 361.909L170.583 361.302L170.242 361.395L169.902 361.488L169.772 361.061L170.304 360.572L170.113 360.157L170.304 359.755L170.261 359.105L169.908 358.603L169.345 358.498L169.209 358.597L168.77 357.545L168.603 357.439L168.69 357.155L168.158 356.622L167.991 356.845L167.397 356.938L167.279 357.446L167.632 358.083L167.941 358.733L168.195 359.996L167.898 359.854L167.619 360.244L168.281 362.398L168.195 363.184L168.919 365.685L168.77 365.821L169.246 366.106L170.521 365.84L170.768 365.561L170.849 365.202L171.931 365.506L171.95 364.125L172.364 363.159L171.647 361.909ZM169.296 355.557L169.55 355.842L170.898 355.898L171.016 355.335L170.762 355.143L169.717 355.328L169.296 355.557ZM170.082 354.035L170.304 354.734L170.626 354.852L170.447 353.676L170.082 354.035ZM174.536 360.064L173.645 358.294L173.026 357.86L172.018 357.359L171.851 357.285L171.331 357.687L171.733 357.743L172.544 358.442L172.63 358.572L172.488 358.857L172.81 359.433L172.884 360.621L173.682 361.364L174.245 361.469L174.659 360.597L174.536 360.064ZM178.198 363.853L176.911 362.231L176.101 363.24L176.59 363.729L177.091 363.58L177.326 364.144H177.796L177.932 364.528L178.656 364.218L179.324 364.887L180.475 363.964L180.091 363.624L178.198 363.853ZM165.881 359.761L165.188 360.089L165.015 360.906L165.72 361.154L166.611 361.822L167.248 363.234L167.069 361.154L166.846 361.061L167.007 360.138L165.881 359.761ZM177.097 361.346L175.631 360.343L174.672 358.888L174.653 358.721L174.356 357.668L174.059 357.935L173.812 357.712L174.078 357.297L174.059 356.375L173.985 356.331L173.633 357.477L172.241 357.043L171.913 356.981L171.368 356.313L171.325 355.372L171.102 355.192L171.059 354.907L170.898 354.802L170.805 354.4L171.115 353.911L170.509 353.155L170.007 353.484L169.797 354.035L170.199 354.988L168.925 355.465L168.671 355.687L168.096 355.923L167.774 355.954L167.156 356.43L166.871 356.814L166.815 355.879L166.456 356.337L166.32 356.653L166.939 357.675L167.279 359.191L166.469 359.47L166.141 359.6L165.287 358.603L164.848 357.427L163.951 355.935L163.023 355.619L163.37 354.66L162.949 353.285L163.555 352.784L163.772 352.487L163.444 352.072L162.324 351.924L161.204 351.236L161.031 352.221L160.481 352.574L160.276 352.097L159.491 352.01L159.28 351.8L158.884 351.917L158.408 351.936L158.025 351.397L157.907 351.311L157.567 351.565L157.684 352.177L157.598 352.382L157.882 352.574L158.668 353.36L158.594 354.307L159.2 357.179L161.192 359.228L161.204 359.959L160.085 360.863L160.023 361.222L161.149 365.283L161.489 367.338L162.98 368.873L162.8 369.078L158.322 369.505L156.936 369.04L156.88 367.363L156.732 365.79L156.818 365.506L156.8 365.4L156.515 363.723L156.398 363.258L157.598 360.987L157.48 359.334L157.066 359.427L156.645 359.488L154.195 357.879L153.453 355.167L152.599 354.01L151.368 353.997L147.322 355.57L146.679 355.409L146.462 354.208L146.722 353.304L144.675 352.413L144.365 351.899L144.409 349.212L145.584 347.559L146.054 346.29L146.073 345.504L145.275 345.603L144.755 345.12L145.578 342.372L148.355 337.518L150.069 337.623L150.409 337.314L150.873 335.772L151.826 335.283L151.684 334.163L152.661 333.5L153.249 332.584L153.23 331.383L152.84 330.43L152.37 330.071L151.183 329.557L149.364 329.86L148.72 329.687L148.368 329.043L148.498 328.771L150.675 327.65L150.793 324.369L151.226 323.453L152.494 322.574L153.045 321.491L153.552 319.522L152.878 317.331L153.02 317.114L153.707 317.907L155.191 318.037L153.49 326.134L154.424 326.406L156.571 325.991L157.882 326.474L158.154 327.502L157.833 330.362L157.158 332.07L157.319 332.919L158.458 333.723L159.522 335.834L160.858 336.856L162.182 337.11L166.339 337.023L169.246 337.716L171.814 337.054L173.131 337.035L175.922 337.735L177.511 337.147L177.852 337.178L178.26 338.242L178.297 339.963L176.812 342.557L174.703 345.238L173.855 347.534L173.756 348.209L174.127 348.896L175.024 349.769L176.138 349.936L178.074 349.571L178.761 349.175L180.487 349.101L182.516 349.856L183.636 349.596L185.455 350.463L186.908 351.571L188.115 353.731L188.504 355.155L187.911 357.798L188.269 360.615L187.954 360.813L187.929 361.209L188.306 361.934L187.552 362.41L187.032 361.965L186.927 361.358L186.172 361.191L185.832 361.03L185.671 361.315L184.811 362.045L184.452 361.897L184.292 361.674L184.056 361.661L183.617 361.903L182.689 360.442L181.904 361.036L181.328 360.813L180.339 360.504L179.936 359.866L179.522 359.984L179.064 359.451L178.681 359.767L178.563 360.256L178.012 360.46L178.223 361.129L178.39 361.767L178.538 362.138L179.021 362.509L179.497 362.361L179.85 362.41L180.382 362.218L180.277 363.302L179.182 363.407L178.291 363.735L177.833 362.992L177.771 362.788L177.122 362.064L177.029 361.482L177.097 361.346ZM190.41 364.014L189.983 363.772L189.717 363.754L189.173 363.531L189.16 363.518L188.913 363.296L188.653 363.58L188.455 363.5L188.671 363.166L188.127 362.243L187.57 362.571L186.927 362.014L186.704 361.804L186.599 361.488L185.739 361.494L185.578 361.667L184.817 362.206L183.995 362.175L183.71 362.2L183.444 362.057L183.054 361.667L182.726 361.476L182.671 360.974L181.904 361.185L181.266 361.197L181.279 360.937L180.506 360.727L179.943 360.442L179.114 360.386L178.817 360.535L178.674 360.894L178.662 361.383H179.726L179.782 361.432L180.506 362.095L180.648 362.509L180.871 363.358L181.39 363.549L181.489 363.302L181.7 363.475L182.361 363.494L182.399 363.63L181.26 364.088L180.994 364.181L180.567 365.667L183.951 366.143L186.537 365.574L190.206 365.487L190.088 364.732L190.41 364.014ZM160.295 352.827L160.784 352.722L161.353 352.233L161.402 351.54L162.2 352.097L163.19 352.487L162.596 353.211L162.862 354.356L163.029 354.555L163.011 354.914L162.64 355.496L162.776 355.892L163.4 356.084L164.18 356.919L165.46 359.618L164.885 359.996L164.625 360.516L164.718 361.079L166.667 362.225L167.038 364.02L167.582 364.837L167.508 365.698L167.805 366.694L168.721 367.394L168.028 368.254L167.434 368.477L166.902 368.168L166.531 368.421L162.584 367.561L162.083 365.989L162.411 365.605L162.039 365.617L161.198 363.209L160.697 362.033L160.759 360.757L161.767 359.792L161.662 358.956L160.542 357.928L159.497 357.216L159.027 354.703L158.847 354.344L158.86 353.217L158.383 352.549L159.15 352.091L159.695 352.481H160.109L160.295 352.827Z" fill="#1C4E63" stroke="white" stroke-width="2"/>
<path d="M112.166 1.30953L120.133 4.82576L132.834 9.31391L135.308 10.7687L138.179 9.84629L140.437 9.83391L145.72 12.3844L155.544 22.0169L159.243 28.4675L157.369 30.077L152.977 32.5532L147.093 31.7608L145.918 31.3523L144.866 30.0832L143.462 29.6622L140.387 29.5446L140.022 32.937L139.571 34.1071L139.261 34.2432L137.591 33.3518H135.865L132.865 34.3175L131.56 35.4442L131.492 35.8775L131.974 39.0595L132.017 44.2843L131.182 44.9034L128.683 45.9186L122.484 46.4077L118.717 46.9958L115.11 52.3073L113.947 53.4649L112.048 54.6473L112.085 56.4302L112.97 59.3026L113.372 61.9336L112.914 63.8093L111.392 64.8617L107.612 65.1898L106.821 65.0103L103.851 65.4065L102.218 65.2146L99.4527 65.4188L93.6809 64.385L93.1118 64.7565L92.5364 67.5484L92.5983 78.8214L92.19 87.352L91.1878 87.9524L90.6063 87.9091L90.13 86.8258L88.868 87.2715L87.6988 86.7391L86.6533 86.8134L79.2297 90.1872L77.745 92.0444L76.6872 92.8801L74.9674 92.7006L74.4972 92.3849L72.9197 90.1253L73.6373 87.1724L75.252 83.6872L76.5634 77.6266L76.0747 69.5479L76.1613 63.3945L76.7862 61.0545L77.578 60.1383L80.0216 59.4078L81.6795 59.3954L83.6406 60.6583L84.2716 60.6335L84.6675 59.6678L84.816 54.703L83.7767 51.2858L83.7519 50.0229L84.5561 46.2715L84.6675 44.2162L83.554 41.5667L82.4033 40.2357L82.6631 37.9452L83.5416 36.1004L83.4859 34.6147L84.4881 32.1818L84.2406 31.408L83.5725 30.8632L82.8549 31.0551L81.3145 33.3394L80.9248 33.6861L79.7989 33.9523L77.9059 33.5313L76.0809 32.2499L70.1668 30.3184L69.5111 29.6375L67.5376 28.5108L66.5169 27.1984L66.0468 27.0065L63.1825 27.9846L62.0318 27.5265L57.9365 27.6132L57.9922 17.4359L60.5533 17.4235L70.7978 8.3977L86.3378 5.29624L87.8287 6.62102L91.361 6.91816L95.3512 6.47244L98.3516 6.81911L101.649 6.72007L104.897 2.84478L111.454 1" fill="#1C4E63"/>
<path d="M112.166 1.30953L120.133 4.82576L132.834 9.31391L135.308 10.7687L138.179 9.84629L140.437 9.83391L145.72 12.3844L155.544 22.0169L159.243 28.4675L157.369 30.077L152.977 32.5532L147.093 31.7608L145.918 31.3523L144.866 30.0832L143.462 29.6622L140.387 29.5446L140.022 32.937L139.571 34.1071L139.262 34.2432L137.591 33.3518H135.865L132.865 34.3175L131.56 35.4442L131.492 35.8775L131.974 39.0595L132.017 44.2843L131.182 44.9034L128.683 45.9186L122.484 46.4077L118.717 46.9958L115.11 52.3073L113.947 53.4649L112.048 54.6473L112.085 56.4302L112.97 59.3026L113.372 61.9336L112.914 63.8093L111.392 64.8617L107.612 65.1898L106.821 65.0103L103.851 65.4065L102.218 65.2146L99.4527 65.4188L93.6809 64.385L93.1118 64.7565L92.5365 67.5484L92.5983 78.8214L92.19 87.352L91.1878 87.9524L90.6063 87.9091L90.13 86.8258L88.868 87.2715L87.6988 86.7391L86.6533 86.8134L79.2297 90.1872L77.745 92.0444L76.6872 92.8801L74.9674 92.7006L74.4972 92.3849L72.9197 90.1253L73.6373 87.1724L75.252 83.6872L76.5634 77.6266L76.0747 69.5479L76.1613 63.3945L76.7862 61.0545L77.578 60.1383L80.0216 59.4078L81.6795 59.3954L83.6406 60.6583L84.2716 60.6335L84.6675 59.6678L84.816 54.703L83.7767 51.2858L83.7519 50.023L84.5561 46.2715L84.6675 44.2162L83.554 41.5667L82.4033 40.2357L82.6631 37.9452L83.5416 36.1004L83.4859 34.6147L84.4881 32.1818L84.2406 31.408L83.5725 30.8632L82.8549 31.0551L81.3145 33.3394L80.9248 33.6861L79.7989 33.9523L77.9059 33.5313L76.0809 32.2499L70.1668 30.3184L69.5111 29.6375L67.5376 28.5108L66.5169 27.1984L66.0468 27.0065L63.1825 27.9846L62.0318 27.5265L57.9365 27.6132L57.9922 17.4359L60.5533 17.4235L70.7978 8.3977L86.3378 5.29624L87.8287 6.62102L91.361 6.91816L95.3512 6.47244L98.3516 6.81911L101.649 6.72007L104.897 2.84478L111.454 1" stroke="white" stroke-width="2"/>
<path d="M304.238 171.952L307.077 170.311L310.696 170.794L317.248 167.792L321.232 168.467L323.7 168.485L325.908 168.925L329.558 168.553L337.266 168.566L341.207 168.275L344.579 174.577L345.482 175.765L348.358 176.434L349.645 177.232L352.899 183.312L352.615 184.655L352.825 187.032L354.47 188.852L357.032 189.762L358.281 192.139L358.442 193.26L357.823 195.501L354.118 202.583L354.353 206.161L354.081 207.449L350.295 210.68L344.956 217.811L341.813 221.204L339.463 223.197L336.901 226.156L336.394 227.134L337.953 231.301L339.753 234.21L341.43 235.727L343.112 234.495L344.863 232.013L345.878 231.777L346.756 232.044L347.696 232.737L349.243 234.687L351.916 237.064L353.246 238.674L353.889 239.924L353.53 243.323L353.988 244.394L354.223 246.585L355.423 249.445L355.392 250.411L356.147 250.956L353.091 254.348L352.417 255.549L351.866 257.357L352.101 261.021L352.67 263.077L353.493 264.389L353.382 265.188L352.775 265.64L350.276 265.423L349.855 265.708L348.581 265.745L348.47 266.76L347.406 267.224L346.453 268.419L345.271 268.685L344.597 271.292L343.286 271.694L342.438 273.378L342.475 273.687L343.057 273.656L343.341 273.929L343.397 275.025L343.941 275.093L344.059 275.644L343.446 275.91L343.063 276.622L343.644 277.563L343.595 278.206L342.407 278.894L342.271 280.887L341.368 281.778L341.015 282.961L339.896 283.444L338.801 282.93L338.429 283.264L337.662 283.357L337.378 283.753L337.662 284.298L337.551 285.369L337.279 285.678L334.959 286.099L334.699 286.236L334.575 287.084L333.728 286.972L331.853 285.716L330.461 286.341L330.047 285.908L328.185 285.499L327.306 284.744L326.948 284.775L326.193 285.647L324.937 285.598L325.086 280.194L323.83 278.856L322.444 278.788L320.984 280.113L319.227 279.816L318.076 279.29L317.192 277.197L316.462 275.842L315.707 275.34L314.983 275.297L314.173 273.991L314.099 273.539L315.126 270.574L313.48 269.434L312.558 269.311L312.187 269.769L311.142 268.438L310.504 268.388L309.577 267.392L309.1 267.348L308.877 266.407L308.104 266.017L307.857 266.302L306.947 266.079L305.803 265.101L306.125 263.906L305.877 262.612L304.856 261.802L304.386 264.748L304.436 266.537L303.576 270.264L303.031 270.883L301.998 271.236L301.788 271.774L301.392 271.843L300.811 271.242L291.104 272.183L289.471 270.276L289.855 269.193L289.329 267.918L289.211 267.187L289.255 266.686L288.704 266.488L283.631 271.069L283.235 271.762L281.726 272.827L281.033 273.966L278.175 276.832L277.346 276.386L275.985 276.325L274.995 276.188L274.5 275.811L273.944 277.129L274.129 277.618L273.659 278.219L273.424 279.333L273.647 280.59L273.473 281.252L273.102 281.481L272.471 283.227L271.636 286.551L271.327 286.793L270.906 286.582L270.089 286.811L269.452 285.994L269.18 286.279L270.355 281.209L270.374 275.786L270.578 275.117L270.201 274.665L271.506 267.546L273.554 263.733L275.682 261.721L277.593 260.52L278.163 259.635L277.983 255.97L279.456 252.324L279.82 250.324L279.474 249.222L279.635 248.578L278.911 247.737L278.998 247.334L273.82 242.648L271.073 239.15L267.893 236.117L263.266 235.021L258.206 234.724L253.584 235.312L249.798 236.94L248.623 236.587L250.968 232.892L251.716 232.031L258.663 227.568L258.731 226.831L258.113 225.172L258.447 224.77L258.23 222.987L256.975 221.433L255.917 220.591L256.368 218.821L257.191 217.496L257.983 216.963H259.134L260.204 217.521L260.822 218.183L261.763 218.041L261.967 218.294L264.757 218.882L266.452 218.375L268.048 216.097L270.43 216.251L272.972 215.917L275.7 215.292L277.204 214.555L281.955 209.819L286.353 207.492L289.286 203.951L290.56 201.357L292.1 200.466L297.99 199.166L299.165 199.234L306.7 195.606L307.801 193.699L307.671 190.27H307.405L307.22 188.877L307.56 188.054L306.91 184.327L305.487 181.937L305.017 178.248L305.333 175.722L305.203 174.391L304.238 171.952Z" fill="#1C4E63" stroke="white" stroke-width="2"/>
<path d="M327.442 21.2554L335.144 21.373L341.058 22.1159L347.714 24.7035L354.946 26.2821L356.635 27.2169L360.402 30.4174L363.36 32.2745L364.337 32.3612L364.523 31.8536L365.141 31.6803L366.162 32.0826L366.545 31.7607L366.205 31.0302L367.127 31.1293L368.179 31.7112L369.206 31.4512L369.719 31.8907L370.109 32.5531L370.752 32.1693L372.515 32.5469L372.973 32.8565L373.548 32.9307L374.161 32.9246L374.111 35.5308L373.19 40.4956L373.95 42.879L374.847 44.0056L377.817 46.3828L378.114 48.6981L376.976 51.3043L375.509 53.211L371.142 57.1172L370.802 58.4791L371.866 60.8501L371.835 64.4344L370.263 74.5188L370.183 76.6855L371.228 81.2913L368.309 86.9495L368.401 88.1504L368.797 88.3733L371.835 88.2433L373.771 90.5647L374.291 92.6262L373.678 93.9324L370.87 96.6748L368.828 100.327L367.04 102.401L366.484 104.172L366.508 106.01L366.979 108.579L366.83 110.399L365.537 112.306L361.757 114.565L354.822 116.435L353.177 117.624L352.113 119.376L351.736 121.09L351.909 126.284L349.799 129.089L347.919 129.516L343.724 129.522L343.539 129.206L343.062 125.213L343.805 117.877L343.39 114.863L341.114 112.77L340.136 113.402L340.755 112.448L338.639 110.232L335.701 106.27L330.448 102.395L329.1 101.596L327.256 100.971L324.757 100.866L322.177 101.801L321.614 102.345L319.734 102.116L318.725 101.169L319.338 96.972L319.987 95.2881L320.13 92.2424L314.964 79.2979L314.84 76.9022L314.253 75.2246L314.049 73.5531L313.919 69.3807L311.964 66.4959L312.081 65.3754L311.605 60.9925L310.9 59.1787L306.112 55.3467L305.573 53.5515L304.485 46.4138L303.117 44.309L301.973 43.7642L300.717 44.1418L297.63 42.7675L294.005 43.919L293.312 44.3647L292.409 42.7985L291.982 40.1056L290.664 37.1465L289.297 36.3727L285.381 37.586L283.637 38.4341L281.682 38.8241L278.391 40.4275L277.092 42.8975L275.149 44.0118L271.437 43.5599L270.33 42.8294L274.896 38.1865L276.906 35.3389L279.43 33.166L282.641 29.5445L285.103 27.9721L290.702 25.4588L300.637 24.8768L308.401 21.9673L320.513 21.3049L327.442 21.2554Z" fill="#1C4E63" stroke="white" stroke-width="2"/>
<path d="M161.755 32.287L165.126 36.3232L168.269 36.2551L170.335 35.8775L169.444 42.5757L170.057 46.3952L170.013 50.1405L170.632 53.341L170.873 56.2815L171.684 58.2687L171.436 60.4787L172.983 63.6978L173.41 65.5859L173.329 66.6259L173.917 68.155L173.243 71.3493L172.117 73.5965L172.896 74.3455L174.461 75.0637L176.119 76.4813L176.837 77.3665L177.146 78.5737L175.977 79.5766L173.911 79.0751L173.571 81.0561L170.552 83.5137L169.76 82.9752L165.671 83.0556L164.743 83.5757L164.341 86.0519L163.376 88.6148L163.097 90.9424L163.196 91.6048L164.378 92.781L164.935 95.0653L164.161 98.8415L164.149 100.284L163.524 100.265L162.076 101.739L160.375 102.834L159.849 103.54L158.792 105.651L158.396 107.849L157.461 109.848L155.581 111.767L154.139 112.702L151.226 113.086L146.314 112.733L142.825 113.321L139.565 116.237L137.795 118.812L137.003 119.283L135.964 119.357L136.007 118.837L135.024 116.305L132.673 112.195L130.619 109.471L130.489 106.078L129.636 101.386L128.442 99.5225L125.113 97.8449V97.102L126.382 93.0843L126.388 91.5553L125.515 90.2243L122.824 89.1286L119.824 88.7448L119.069 89.2462L117.529 89.6114L115.184 89.3019L111.8 89.7724L109.542 88.2805L107.767 88.2124L106.722 86.1695L106.053 85.8166L103.82 86.219L102.527 86.0271L101.964 85.6309L101.476 85.7238L100.82 86.1076L100.313 87.5438L96.3904 88.4476L93.8479 87.0547H92.722L92.1899 87.3519L92.5982 78.8213L92.5364 67.5483L93.1117 64.7564L93.6808 64.385L99.4526 65.4188L102.218 65.2145L103.851 65.4064L106.821 65.0102L107.612 65.1897L111.392 64.8616L112.914 63.8092L113.372 61.9335L112.97 59.3025L112.085 56.4301L112.048 54.6472L113.947 53.4648L115.11 52.3072L118.717 46.9957L122.484 46.4076L128.683 45.9186L131.182 44.9033L132.017 44.2843L131.974 39.0594L131.491 35.8775L131.559 35.4442L132.865 34.3175L135.865 33.3517H137.591L139.261 34.2432L139.571 34.107L140.022 32.937L140.387 29.5446L143.462 29.6622L144.866 30.0831L145.918 31.3522L147.093 31.7608L152.976 32.5532L157.369 30.077L159.243 28.4674L161.755 32.287Z" fill="#1C4E63" stroke="white" stroke-width="2"/>
</svg>
